<?xml version="1.0" standalone="no"?>
<!DOCTYPE svg PUBLIC "-//W3C//DTD SVG 1.1//EN" "http://www.w3.org/Graphics/SVG/1.1/DTD/svg11.dtd" >
<svg xmlns="http://www.w3.org/2000/svg">
<metadata>Generated by IcoMoon</metadata>
<defs>
<font id="icomoon" horiz-adv-x="1024">
<font-face units-per-em="1024" ascent="960" descent="-64" />
<missing-glyph horiz-adv-x="1024" />
<glyph unicode="&#x20;" horiz-adv-x="512" d="" />
<glyph unicode="&#xe900;" glyph-name="arrow-down" horiz-adv-x="1820" d="M909.777-35.556c38.223 0 71.111 15.111 100.445 44.444l665.781 682.667c23.108 23.112 35.556 51.556 35.556 85.333 0 69.334-55.114 124.445-123.563 124.445-33.769 0-65.775-13.333-90.658-38.222l-586.671-604.444-587.556 604.444c-24.889 24-55.999 38.222-90.666 38.222-68.444 0-123.556-55.111-123.556-124.445 0-33.777 12.445-62.222 35.555-86.222l665.777-681.778c31.111-30.222 62.223-44.444 99.556-44.444z" />
<glyph unicode="&#xe901;" glyph-name="arrow-right" horiz-adv-x="1229" d="M719.101-34.734c19.197 0 37.799 7.803 53.999 24.003l393.598 392.398c15.005 15 24.003 36 24.003 57s-8.998 42.6-24.003 57l-392.397 392.4c-16.8 16.8-36.004 24.6-55.2 24.6-44.401 0-75.601-31.8-75.601-73.2 0-22.8 9.6-40.8 23.4-55.2l136.203-136.8 151.798-139.201-134.997 7.2h-702.603c-47.4 0-79.2-31.2-79.2-76.8s31.8-76.8 79.2-76.8h702.603l134.997 7.8-151.798-139.799-136.203-136.199c-13.8-14.404-23.4-32.399-23.4-55.2 0-42.004 31.2-73.202 75.601-73.202z" />
<glyph unicode="&#xe902;" glyph-name="tag" horiz-adv-x="1078" d="M573.052-13.474l414.316 414.736c34.105 34.106 38.319 55.159 38.319 105.685v159.579c0 47.579-11.372 65.684-47.158 101.474l-96.423 96.421c-35.791 35.789-53.895 47.158-101.473 47.158h-159.582c-50.526 0-70.737-5.053-104.84-39.158l-415.158-414.316c-64.842-65.261-65.684-135.578 0.421-201.265l270.316-269.894c66.105-66.102 136-65.682 201.262-0.42zM432.421 62.318l-255.579 255.154c-26.947 26.947-26.105 53.895 0 79.581l408.002 407.999c8.418 8.421 15.996 12.632 29.049 12.632h163.371c12.207 0 20.631-4.211 28.629-12.211l113.686-113.684c7.998-7.579 12.213-16.421 12.213-28.632v-163.368c0-13.895-3.789-21.474-11.792-29.895l-407.999-408.002c-26.105-25.681-52.631-26.522-79.579 0.426zM788.631 611.789c0-35.368-27.368-63.158-62.733-63.158-35.791 0-63.159 27.789-63.159 63.158 0 34.948 27.368 62.737 63.159 62.737 35.366 0 62.733-27.789 62.733-62.737z" />
<glyph unicode="&#xe903;" glyph-name="bond" horiz-adv-x="1418" d="M889.848-12.312c-63.386 0-123.078 14.155-177.848 38.77-56.615-24.615-118.769-38.77-184-38.77-257.23 0-471.384 214.773-471.384 471.388 0 257.231 213.539 471.385 470.769 471.385 64.615 0 127.385-13.538 184-38.154 54.769 24.615 115.078 38.154 177.849 38.154 257.229 0 471.993-214.154 471.993-471.385 0-256.615-214.764-471.388-471.379-471.388zM889.848 128.614c179.688 0 330.461 151.386 330.461 330.462s-150.772 330.462-331.075 330.462c-9.232 0-17.849 0-27.081-1.231 84.307-85.538 137.232-201.846 137.232-329.231 0-126.769-52.925-243.692-136.617-329.233 8.617-0.614 17.849-1.229 27.081-1.229zM197.538 459.077c0-179.076 151.385-330.462 330.461-330.462s330.459 151.386 330.459 330.462c0 179.077-151.382 330.462-331.074 330.462-179.076 0-329.846-151.385-329.846-330.462z" />
<glyph unicode="&#xe904;" glyph-name="moon" horiz-adv-x="956" d="M494.9 2.669c201.598 0 371.001 110.128 447.999 286.531 7.468 16.333 9.803 29.867 9.803 39.2 0 26.6-19.599 43.866-42.469 43.866-11.667 0-22.869-2.333-38.735-9.8-33.601-14.466-87.265-23.8-139.066-23.8-239.4 0-388.267 143.266-388.267 374.733 0 64.866 11.201 124.133 28 157.267 8.866 16.333 12.133 28 12.133 40.6 0 23.8-18.2 45.733-46.199 45.733-7.467 0-19.6-2.333-35.467-8.4-177.801-71.867-299.6-254.8-299.6-453.134 0-284.666 207.2-492.797 491.867-492.797z" />
<glyph unicode="&#xe905;" glyph-name="arrow-left" horiz-adv-x="1195" d="M495.542-16.58c43.167 0 73.5 30.327 73.5 71.159 0 22.17-9.334 39.671-22.75 53.67l-131.834 132.417-148.166 135.917 131.249-7.584h683.666c45.5 0 76.416 30.333 76.416 74.667s-30.916 74.667-76.416 74.667h-683.666l-131.249-7 148.166 135.333 131.834 133.001c14 14 22.75 31.5 22.75 53.666 0 40.25-30.333 71.167-73.5 71.167-18.667 0-36.751-7.583-53.667-23.917l-381.5-381.5c-14.583-14-23.333-34.999-23.333-55.416s8.75-40.834 23.333-55.417l382.666-381.5c15.75-15.753 33.834-23.33 52.5-23.33z" />
<glyph unicode="&#xe906;" glyph-name="pending" horiz-adv-x="1205" d="M1184.714 456l-118.585-165.178c-18.824-25.883-48.002-25.883-66.355 0l-119.055 165.178c-23.064 32-11.77 62.118 25.877 62.118h73.415c-28.238 178.353-183.531 319.53-377.41 319.53-104.943 0-200.002-43.765-267.296-112.941-29.647-25.411-61.647-21.647-81.412 0-19.294 20.235-19.294 54.118 7.529 78.588 85.647 88 207.529 144.941 341.178 144.941 252.235 0 459.764-192.47 488.942-430.118h67.289c38.593 0 49.417-30.118 25.883-62.118zM944.718 109.176c-85.649-87.998-207.535-144.938-342.118-144.938-251.766 0-459.296 192.47-488.472 430.115h-68.235c-38.588 0-48.941 30.118-25.882 62.117l119.059 165.177c18.353 25.883 47.529 25.883 66.353 0l118.588-165.647c23.059-31.529 12.236-61.647-25.882-61.647h-72.471c28.235-178.825 183.53-319.529 376.943-319.529 105.882 0 200.939 43.761 267.764 112.941 30.118 25.413 61.645 22.118 81.884 0.47 18.824-20.233 18.824-54.115-7.529-79.059z" />
<glyph unicode="&#xe907;" glyph-name="people" horiz-adv-x="1638" d="M1100.268 449.6c130.662 0 236.264 114.133 236.264 255.466 0 138.667-106.134 250.134-236.264 250.134-129.597 0-236.271-112.533-236.271-250.667 0.539-140.8 105.602-254.933 236.271-254.933zM478.933 437.333c113.601 0 205.864 100.8 205.864 225.066 0 121.067-92.263 219.734-205.864 219.734-113.066 0-206.399-99.734-205.866-220.267 0-124.266 92.266-224.533 205.866-224.533zM970.67 704.533c0-85.866 59.194-152 129.597-152 70.929 0 129.597 67.2 129.597 152.533 0 83.201-58.668 147.201-129.597 147.201-70.403 0-130.137-64.534-129.597-147.734zM478.933 538.666c-56.533 0-104.533 54.4-104.533 123.2-0.534 65.6 48 118.934 104.533 118.934 57.067 0 105.067-52.266 105.067-118.4 0-69.333-48-123.733-105.067-123.733zM550.933 47.466c-3.734-38.4 16-82.132 48-101.335h-411.2c-80 0-120 35.205-120 102.4 0 177.070 183.467 337.603 410.666 337.603 79.467 0 165.334-21.866 231.464-60.8-33.597-21.333-57.597-46.399-76.264-76.269-41.6 22.405-101.333 36.269-155.2 36.269-164.8 0-302.4-110.933-302.4-225.068 0-8.533 3.734-12.8 13.334-12.8h361.6zM1430.398-53.337c94.938 0 141.332 30.938 141.332 97.068 0 152.003-188.266 341.869-471.463 341.869s-472.001-189.866-472.001-341.869c0-66.13 46.4-97.068 141.331-97.068h660.801zM743.997 62.403c0-9.066 4.267-12.8 16.002-12.8h680.537c11.196 0 15.462 3.734 15.462 12.8 0 76.8-129.065 220.264-355.731 220.264-227.198 0-356.27-143.464-356.27-220.264z" />
<glyph unicode="&#xe908;" glyph-name="reddit" d="M511.991-26.066c-261.824 0-474.074 212.252-474.074 474.076s212.25 474.074 474.074 474.074c261.823 0 474.076-212.25 474.076-474.074 0-261.823-212.252-474.076-474.076-474.076zM828.604 448.009c0 38.096-31.323 69.418-69.416 69.418-18.625 0-35.556-7.619-48.253-19.471-47.411 33.863-112.594 55.873-185.399 58.412l31.323 148.148 103.28-22.010c0.848-26.243 22.858-47.408 49.101-47.408 27.090 0 49.101 22.011 49.101 49.101s-22.010 49.1-49.101 49.1c-19.473 0-36.403-11.005-44.021-27.936l-115.133 24.55c-3.386 0.847-6.773 0-9.312-1.693s-5.080-4.233-5.080-7.619l-35.556-165.080c-73.651-1.693-139.682-23.703-187.936-58.412-12.698 11.852-29.629 19.471-48.254 19.471-38.095 0-69.418-31.323-69.418-69.418 0-27.936 16.931-52.487 40.635-62.645-0.847-6.775-1.694-13.545-1.694-21.163 0-106.667 123.598-193.018 276.826-193.018 153.226 0 276.822 86.352 276.822 193.018 0 6.087-0.683 12.174-1.434 18.876l-0.256 2.287c26.243 11.005 43.173 35.555 43.173 63.491zM354.53 398.909c0-27.089 22.011-49.099 49.101-49.099s49.1 22.010 49.1 49.099c0 27.090-22.010 49.1-49.1 49.1s-49.101-22.010-49.101-49.1zM511.991 232.135c-18.624 0-83.81 2.543-117.672 36.403-5.080 5.080-5.080 12.698 0 17.778s12.698 5.080 17.778 0c21.164-21.163 66.878-28.786 99.048-28.786s77.883 7.623 99.046 28.786c5.080 5.080 12.698 5.080 17.778 0 6.775-5.080 6.775-12.698 1.695-17.778-33.86-33.86-98.202-36.403-117.672-36.403zM621.198 349.81c27.090 0 49.101 22.010 49.101 49.099s-22.010 49.1-49.101 49.1-49.101-22.010-49.101-49.1c0-27.089 22.010-49.099 49.101-49.099z" />
<glyph unicode="&#xe909;" glyph-name="mail" horiz-adv-x="1170" d="M993.894-3.211c100.996 0 160.497 58.997 160.497 169.494v553.002c0 110-59.502 169-170.496 169h-807.503c-101 0-160.5-59-160.5-169v-553.002c0-110.497 59.5-169.494 170.5-169.494h807.502zM585.893 403.286c-18 0-34 8.5-54.499 28.5l-352.5 348 5.25 0.437 796.747 0.063c4.001 0 7.504 0 11.505-0.5l-352.502-348c-20.5-20-36.5-28.5-54.001-28.5zM122.393 702.286l260-256-260-258.001v514.001zM1047.896 189.784l-259.006 256.502 259.006 255v-511.502zM189.393 104.784c-5.5 0-10.5 0.505-15 1.002l275.999 273.499 23.001-22.5c37-36.5 73.5-52.5 112.5-52.5 38.5 0 75 16 112 52.5l23.001 23 276-273.999c-5.003-0.497-10.503-1.002-16.004-1.002h-791.496z" />
<glyph unicode="&#xe90a;" glyph-name="twitter" horiz-adv-x="1317" d="M431.531-47.309c459.824 0 711.436 381.321 711.436 711.439 0 10.728 0 21.456-0.49 32.183 48.764 35.109 91.187 79.482 124.833 129.707-44.859-19.993-93.133-33.159-143.85-39.497 51.69 30.72 91.187 79.969 110.204 138.483-48.274-28.769-101.91-49.249-158.961-60.465-45.839 48.762-110.694 78.994-182.374 78.994-137.991 0-250.146-112.152-250.146-250.149 0-19.504 2.438-38.521 6.339-57.051-207.726 10.24-392.046 110.202-515.413 261.364-21.456-37.059-33.646-79.97-33.646-125.805 0-86.796 44.373-163.353 111.177-208.214-40.96 1.463-79.482 12.678-113.128 31.208 0-0.976 0-1.951 0-3.414 0-120.929 86.309-222.354 200.411-245.272-20.968-5.851-42.911-8.777-65.829-8.777-16.091 0-31.695 1.463-46.811 4.389 31.695-99.474 124.343-171.64 233.569-173.593-85.821-67.291-193.584-107.279-310.613-107.279-19.993 0-39.985 0.98-59.49 3.416 110.202-70.217 241.859-111.667 382.781-111.667z" />
<glyph unicode="&#xe90b;" glyph-name="bolt" horiz-adv-x="647" d="M627.367 499.79l-403.367-510.736c-31.158-39.58-81.684-13.894-63.579 34.525l123.79 332.633h-242.948c-19.368 0-33.684 13.474-33.684 31.997 0 10.526 4.211 19.79 11.789 29.475l403.368 511.159c31.158 39.579 81.263 13.895 63.579-34.526l-123.79-333.053h242.949c19.37 0 33.684-13.474 33.684-32 0-10.105-4.215-19.368-11.792-29.473zM396.632 428.632l-112.421-242.108 229.474 302.318h-263.579l112 242.526-229.053-302.736h263.579z" />
<glyph unicode="&#xe90c;" glyph-name="menu" horiz-adv-x="1843" d="M1668.803 698.4c45.599 0 82.401 38.4 82.401 84 0 46.401-36.004 84.001-82.401 84.001h-1494.403c-46.399 0-82.399-38.4-82.399-84.001 0-44.8 36.8-84 82.399-84h1494.403zM1668.803 326.4c45.599 0 82.401 38.4 82.401 84 0 46.401-36.004 84-82.401 84h-1494.403c-46.399 0-82.399-38.4-82.399-84 0-44.8 36.8-84 82.399-84h1494.403zM1751.204 38.4c0-45.6-36.803-84.799-82.401-84.799h-1494.403c-45.6 0-82.399 39.999-82.399 84.799 0 45.6 36 84 82.399 84h1494.403c46.397 0 82.401-37.6 82.401-84z" />
<glyph unicode="&#xe90d;" glyph-name="close" d="M24.665 21.661l940.717 917.904c11.565 11.285 28.885 10.018 38.686-2.829l2.187-2.867c9.801-12.847 8.37-32.409-3.195-43.693l-940.717-917.904c-11.565-11.285-28.885-10.018-38.686 2.829l-2.187 2.867c-9.801 12.847-8.37 32.409 3.195 43.693zM963.279-43.609l-942.299 915.806c-11.587 11.262-13.056 30.82-3.28 43.686l2.191 2.883c9.776 12.865 27.094 14.166 38.682 2.904l942.299-915.806c11.587-11.262 13.056-30.82 3.28-43.686l-2.191-2.883c-9.776-12.865-27.094-14.166-38.682-2.904z" />
<glyph unicode="&#xe90e;" glyph-name="swap" horiz-adv-x="819" d="M319 458.4c0-28.002-19.2-47.602-47.6-47.602-12 0-25.6 5.601-34.8 14.802l-206.4 201.2c-20.8 20-20.8 51.2 0 71.6l206.4 201.2c9.2 9.2 22.8 14.8 34.8 14.8 28.4 0 47.6-19.6 47.6-47.6 0-13.2-4.4-24.4-13.6-33.2l-85.2-82-50-43.6 78.8 2.4h507.598c27.203 0 48-20 48-48 0-27.6-20.797-48-48-48h-507.598l-78.8 2.8 50-43.6 85.2-82c9.2-8.8 13.6-20 13.6-33.2zM582.6-41.201c-9.201-9.201-22.799-14.802-35.2-14.802-28.001 0-47.6 20.004-47.6 47.601 0 13.204 4.8 24.402 14.002 33.603l85.197 82.002 50.002 43.197-78.802-2.401h-507.599c-27.6 0-48 19.999-48 48 0 27.602 20.4 48 48 48h507.599l78.802-2.801-50.002 43.602-85.197 82.002c-9.202 8.796-14.002 19.999-14.002 33.198 0 28.001 19.598 47.601 47.6 47.601 12.401 0 25.999-5.601 35.2-14.802l206.403-201.201c20.398-19.999 20.797-51.2 0-71.598l-206.403-201.201z" />
<glyph unicode="&#xe90f;" glyph-name="home" horiz-adv-x="1138" d="M981.555 49.778c0-68.887-41.779-110.222-112.89-110.222h-601.776c-71.111 0-112.889 41.335-112.889 110.222v404.889l-44.889-37.778c-12.444-10.222-26.667-17.778-41.333-17.778-32.445 0-52.445 21.778-52.445 48.889 0 14.667 7.111 29.778 20.444 41.333l463.111 388.445c43.111 36 98.223 36 140.889 0l203.11-170.667v77.333c0 20 13.778 33.333 33.781 33.333h71.999c19.996 0 32.887-13.334 32.887-33.333v-193.778l120.445-101.333c13.335-11.111 20.446-25.333 20.446-42.222 0-29.334-22.226-48.001-52.002-48.001-15.11 0-29.332 7.556-41.779 17.778l-47.11 39.556v-406.667zM297.556 41.335h144v286.219c0 20.89 13.778 34.224 35.111 34.224h185.332c20.89 0 34.224-13.335 34.224-34.224v-286.219h141.778c27.108 0 42.223 15.11 42.223 42.667v458.22l-288.893 242.222c-14.222 12-30.221 12-43.998 0l-292-244.444v-455.998c0-27.557 15.111-42.667 42.222-42.667z" />
<glyph unicode="&#xe910;" glyph-name="path" horiz-adv-x="862" d="M669.685-21.472c82.524 0 149.892 67.368 149.892 149.892 0 66.528-43.369 122.95-103.155 142.74v12.628c0 95.162-56.422 160.002-165.053 187.791l-213.475 55.579c-64.842 17.263-98.526 50.947-98.526 98.527v12.631c60.21 19.79 103.158 76.21 103.158 142.737 0 82.947-66.948 149.895-149.895 149.895-82.526 0-149.895-66.947-149.895-149.895 0-66.527 43.369-122.947 103.158-142.737v-12.631c0-95.158 56.421-160.001 165.053-187.79l213.053-55.582c65.263-17.262 98.948-50.947 98.948-98.525v-12.628c-60.211-19.79-103.579-76.213-103.579-142.74 0-82.524 67.367-149.892 150.317-149.892zM192.632 718.737c-34.948 0-62.316 27.368-62.316 62.316 0 35.368 27.368 62.316 62.316 62.316 35.368 0 62.316-26.947 62.316-62.316 0-34.948-26.947-62.316-62.316-62.316zM607.367 128.42c0-35.366 26.947-62.313 62.318-62.313 34.945 0 61.893 26.947 61.893 62.313 0 34.951-27.368 62.318-61.893 62.318-35.371 0-62.318-27.368-62.318-62.318z" />
<glyph unicode="&#xe911;" glyph-name="arrow-under" horiz-adv-x="896" d="M447.75 948c38 0 64-26.5 64-66v-585.501l-4-108.499 114 129.498 114.001 113.002c11.501 12 27.002 20 45.997 20 35.002 0 61.005-26 61.005-62.5 0-16.5-6.502-32.5-20-46l-327.502-327.498c-12-13.005-30-20-47.5-20s-35 6.995-47.5 20l-327 327.498c-13.5 13.5-20 29.5-20 46 0 36.5 26 62.5 61 62.5 19 0 34-8 46-20l113.5-113.002 114.5-129.498-4.5 108.499v585.501c0 39.5 26 66 64 66z" />
<glyph unicode="&#xe912;" glyph-name="plus" d="M511.666-58.581c42.584 0 77.583 36.164 77.583 75.827v347.087h340.081c40.832 0 76.416 35 76.416 77.583 0 42-35.584 77.583-76.416 77.583h-340.081v347.083c0 40.834-34.999 75.834-77.583 75.834-41.999 0-77-35-77-75.834v-347.083h-340.083c-39.667 0-76.417-35.583-76.417-77.583 0-42.583 36.75-77.583 76.417-77.583h340.083v-347.087c0-39.663 35-75.827 77-75.827z" />
<glyph unicode="&#xe913;" glyph-name="power" horiz-adv-x="956" d="M477.867 425.204c31.659 0 52.565 23.412 52.565 57.915v418.964c0 34.503-20.907 57.916-52.565 57.916-32.256 0-53.163-23.413-53.163-57.916v-418.964c0-34.503 20.907-57.915 53.163-57.915zM477.867-64c261.031 0 477.867 223.034 477.867 492.284 0 141.092-59.733 269.862-153.511 357.968-50.777 49.906-127.832-20.332-70.485-78.247 72.875-69.007 117.671-168.819 117.671-279.721 0-213.176-165.465-383.228-371.541-383.228-206.677 0-371.542 170.052-371.542 383.228 0 110.903 44.801 210.715 117.079 279.721 57.344 57.915-19.713 128.153-70.487 78.247-93.183-88.106-152.917-216.876-152.917-357.968 0-269.25 216.831-492.284 477.867-492.284z" />
<glyph unicode="&#xe914;" glyph-name="search" d="M1000.214 50.783c0-47.996-36.25-85.994-84.421-85.994-22.843 0-45.188 7.995-61.572 24.496l-204.597 206c-60.584-37.998-132.092-59.999-208.071-59.999-218.498 0-397.767 180.5-397.767 400.501 0 220.499 179.269 400.5 397.767 400.5s397.272-180.5 397.272-400.5c0-81.001-23.837-156.5-65.551-219.5l202.606-204.502c16.889-16.998 24.335-38.495 24.335-61.001zM164.465 535.786c0-153 124.641-278.5 277.091-278.5 151.954 0 276.596 125.5 276.596 278.5s-124.641 278.499-276.596 278.499c-152.45 0-277.091-125.5-277.091-278.499z" />
<glyph unicode="&#xe915;" glyph-name="share" horiz-adv-x="862" d="M475.579 336.842c0-23.159-19.79-43.369-44.21-43.369s-43.789 20.211-43.789 43.369v417.263l3.789 61.894-24.421-31.999-54.737-58.526c-7.579-8-18.526-12.632-29.474-12.632-20.631 0-38.315 15.579-38.315 37.474 0 10.947 4.21 19.368 12.21 27.368l140.631 135.158c11.369 11.368 22.737 15.158 34.106 15.158 11.789 0 22.737-3.789 34.526-15.158l140.631-135.158c7.578-8 11.792-16.421 11.792-27.368 0-21.895-17.688-37.474-38.74-37.474-10.526 0-21.472 4.632-28.629 12.632l-55.16 58.526-24 31.999 3.789-61.894v-417.263zM817.896 95.157c0-93.049-49.686-142.735-143.581-142.735h-486.315c-93.473 0-143.579 49.686-143.579 142.735v408.843c0 93.052 50.105 142.737 143.579 142.737h112.421v-96.421h-103.579c-36.631 0-56-18.526-56-56.842v-388.212c0-37.893 19.369-56.417 56-56.417h468.634c36.206 0 56.417 18.524 56.417 56.417v388.212c0 38.316-20.211 56.842-56.417 56.842h-101.899v96.421h110.738c93.895 0 143.581-49.684 143.581-142.737v-408.843z" />
<glyph unicode="&#xe916;" glyph-name="slider" d="M160-3.211c30 0 54 22.996 54 51.5v140.997c48.5 20.999 82.5 69.5 82.5 125.499 0 55.5-34 104-82.5 125v437.5c0 30-24.5 53.5-54 53.5-29 0-54-24-54-53.5v-437.5c-48.5-21-82.5-69-82.5-125s34-104.5 82.5-125.499v-140.997c0-28.504 25-51.5 54-51.5zM566 49.788c0-30.003-24-52.999-54-52.999-29.5 0-54 22.996-54 52.999v440.997c-48.5 21-82.5 69.5-82.5 125 0 56 34 104.5 82.5 125.5v137.5c0 28 25 52 54 52 29.5 0 54-23.5 54-52v-138c48.5-21 82.5-69 82.5-125s-34-104-82.5-125v-440.997zM918.001 48.289c0-28.504-23.998-51.5-54.001-51.5-29.499 0-54.001 22.996-54.001 51.5v140.997c-48.501 21.497-82.499 69.5-82.499 125.499 0 55.5 33.998 104 82.499 125v437.5c0 29.5 25 53.5 54.001 53.5 29.499 0 54.001-23.5 54.001-53.5v-437.5c48.501-21 82.498-69 82.498-125s-33.997-104.5-82.498-125.499v-140.997zM448 615.786c0-36.5 28.5-64 64-64 36.5 0 64 27.5 64 64 0 35.5-27.5 64-64 64-35.5 0-64-28.5-64-64zM864 250.786c-35.504 0-64 27.5-64 64 0 35.5 28.496 64 64 64 36.498 0 64-28.5 64-64 0-36.5-27.502-64-64-64zM96 314.786c0-36.5 28.5-64 64-64 36.5 0 64 27.5 64 64 0 35.5-27.5 64-64 64-35.5 0-64-28.5-64-64z" />
<glyph unicode="&#xe917;" glyph-name="source" horiz-adv-x="1152" d="M223.75 184.998c19 22.003 12.5 48.998-8 72-65 72.001-101 170.501-101 278.001s36 206 101 278c20.5 23 27 50.5 8 72-19.5 23.5-53.5 25.5-79.5-2.5-82-86.5-129-214-129-347.5s45-258.5 129-347.499c26-28 60-26.003 79.5-2.502zM1007.75 187.501c83.501 88.998 128.998 213.999 128.998 347.499s-47.002 261-128.998 347.5c-26.502 28-60.499 26-80 2.5-18.502-21.5-12.499-49 8-72 64.998-72 100.998-170.5 100.998-278s-36-206-100.998-278.001c-20.499-23.002-26.502-49.997-8-72 19.501-23.501 53.498-25.498 80 2.502zM373.75 404.5c17-24.001 23.5-50.001 6-71.5-19-23.502-55.5-24.5-79.5 2.5-43.5 51-67.5 123-67.5 199.5s24 149 67.5 199.5c24 27.5 60.5 26.5 79.5 3 17.5-21.5 11-47.5-6-71.5-25-34-41.5-83-41.5-131s15.5-97.5 41.5-130.5zM851.251 335.5c43.501 51 68 123 68 199.5s-24.499 149-68 199.5c-23.501 27.5-60 26.5-79.002 3-17.997-21.5-11.501-47.5 6.003-71.5 24.998-34 40.998-83 40.998-131s-15.501-97.5-40.998-130.5c-17.504-24.001-24-50.001-6.003-71.5 19.002-23.502 55.501-24.5 79.002 2.5zM623.75 5.498c0-32.499-18.5-53.997-48-53.997-28 0-47.5 22.496-47.5 53.997v438.502c-33 17.5-55 51.5-55 91 0 57.5 45.5 103 102.5 103s103.002-45.5 103.002-103c0-39.5-22.502-73.5-55.002-90.5v-439.002z" />
<glyph unicode="&#xe918;" glyph-name="swap-arrows" horiz-adv-x="1280" d="M652.998 561.25c-34.998 0-59.498 24-59.498 59.5 0 15 7 32 18.5 43.5l251.501 258c24.998 26 64 26 89.498 0l251.501-258c11.501-11.5 18.502-28.5 18.502-43.5 0-35.5-24.499-59.5-59.501-59.5-16.499 0-30.502 5.5-41.504 17l-102.496 106.5-54.502 62.5 3.002-98.5v-634.497c0-34.003-24.998-60-60-60-34.502 0-60 25.997-60 60v634.497l3.501 98.5-54.502-62.5-102.496-106.5c-11.002-11.5-25.005-17-41.504-17zM28.5 231.75c-11.5 11.501-18.5 28.499-18.5 44 0 35.002 25 59.5 59.5 59.5 16.5 0 30.5-6 42-17.503l102.5-106.496 54-62.502-3 98.502v634.499c0 34.5 25 60 60 60 34.5 0 60-25.5 60-60v-634.499l-3.5-98.502 54.5 62.502 102.5 106.496c11 11.503 25 17.503 41.5 17.503 35 0 59.5-24.498 59.5-59.5 0-15.501-7-32.499-18.5-44l-251.5-258.003c-25-25.498-64-25.997-89.5 0l-251.5 258.003z" />
<glyph unicode="&#xe919;" glyph-name="star" d="M839.1 71.999c12.442-37.33 7.999-66.219-15.115-83.553-23.552-17.778-51.996-12.004-84.44 11.554l-227.557 167.111-227.556-167.111c-32.444-23.558-60.889-29.332-84.445-11.554-23.111 17.334-27.555 46.222-15.111 83.553l90.222 267.11-229.778 164.891c-32 22.666-46.222 48.889-36.444 76.889 9.333 27.111 35.111 40.445 74.667 40l281.333-2.222 85.778 268.889c12.444 38.222 32.445 59.111 61.334 59.111s49.333-20.889 61.334-59.111l85.777-268.889 281.333 2.222c39.555 0.445 65.337-12.889 74.667-40.445 9.335-27.555-4.443-53.778-36.443-76.444l-229.78-164.891 90.226-267.11zM541.32 260.443l188.001-146.222c0.319-0.159 0.609-0.319 0.876-0.466 1.223-0.671 1.951-1.070 2.679 0.023 0.444 0.887 0.444 1.331 0 3.556l-80.447 224c-9.33 25.333-7.111 38.667 16.89 54.667l197.33 134.222c1.781 1.333 2.224 1.778 2.224 3.111-0.444 0.889-1.775 0.889-3.999 0.889l-237.778-6.666c-27.113-0.889-39.555 6.222-46.666 32.889l-66.223 228.445c-0.444 2.222-1.333 3.111-2.222 3.111s-1.778-0.889-2.222-3.111l-65.778-228.445c-7.556-26.667-20-33.778-47.111-32.889l-237.778 6.666c-2.222 0-3.111 0-3.556-0.889-0.444-1.333 0.445-2.222 2.223-3.111l196.888-133.778c24.445-16 26.222-29.778 16.889-55.111l-80.444-224c-0.445-2.224-0.445-2.668 0-3.556 0.729-1.092 1.457-0.694 2.675-0.023 0.268 0.148 0.56 0.307 0.88 0.466l188 146.222c21.778 17.334 36.889 17.334 58.667 0z" />
<glyph unicode="&#xe91a;" glyph-name="globe" horiz-adv-x="1084" d="M542.118-35.762c269.649 0 491.767 222.587 491.767 492.232 0 269.648-222.587 491.765-491.767 491.765-269.647 0-491.765-222.118-491.765-491.765 0-269.644 222.118-492.232 491.765-492.232zM340.235 704.941c-32.47 10.353-60.235 23.53-82.824 39.059 46.117 45.648 103.529 80.941 167.059 100.235-33.882-33.411-62.589-80.941-84.235-139.294zM660.233 844.235c33.882-33.411 62.59-81.412 84.239-139.294 31.997 10.353 60.235 23.53 82.354 38.589-46.122 46.118-103.063 80.941-166.593 100.706zM507.765 678.117c-34.824 1.412-67.765 4.706-98.353 10.353 25.411 66.823 60.235 116.706 98.353 135.529v-145.883zM576.941 824v-145.883c34.821 1.412 67.764 4.706 97.881 10.353-24.937 66.823-59.765 116.706-97.881 135.529zM299.765 491.294h-161.882c6.589 74.353 33.412 143.059 75.294 200.941 27.765-21.177 64.471-38.589 107.294-52.235-11.294-45.647-18.353-95.53-20.706-148.706zM784.468 491.294h161.882c-6.584 73.882-33.413 143.059-74.818 200.471-27.768-20.706-64.476-38.118-107.297-51.765 10.824-45.647 18.354-95.53 20.233-148.706zM713.885 491.294h-136.944v117.647c41.411 1.882 81.413 6.117 118.12 13.647 9.879-40.941 16.468-85.176 18.824-131.294zM370.353 491.294h137.412v117.647c-41.412 1.882-81.412 6.117-118.588 13.647-9.882-40.941-16.471-85.176-18.824-131.294zM214.118 219.293c-42.353 58.356-69.647 127.53-76.236 202.825h161.882c2.353-54.117 9.412-104.943 20.706-151.059-42.353-13.649-78.588-31.057-106.353-51.766zM370.353 422.117c2.353-47.059 8.941-92.233 19.294-133.645 36.706 7.060 76.706 11.764 118.118 13.173v120.471h-137.412zM694.585 288.473c-36.701 7.060-76.234 11.764-117.644 13.173v120.471h136.944c-1.885-47.059-8.945-92.233-19.299-133.645zM763.765 271.059c42.821-13.649 79.059-31.057 106.821-51.766 41.882 58.356 69.65 127.53 75.764 202.825h-161.882c-1.879-54.117-8.939-104.943-20.703-151.059zM507.765 87.998c-38.117 19.299-72.471 68.71-97.412 134.59 30.118 5.18 62.588 8.469 97.412 9.885v-144.474zM576.941 232.472v-144.474c37.646 19.299 72.468 68.71 97.411 134.59-30.587 5.18-63.060 8.469-97.411 9.885zM424 68.704c-63.059 19.293-119.529 53.652-165.647 98.828 22.588 15.529 50.353 28.232 82.353 38.117 21.176-56.946 49.883-104.002 83.294-136.945zM744.002 205.649c-21.649-56.946-49.887-104.002-83.293-136.945 62.584 19.293 119.055 53.652 165.171 98.828-22.112 15.529-49.881 28.232-81.878 38.117z" />
<glyph unicode="&#xe91b;" glyph-name="gear" horiz-adv-x="1092" d="M670.578 34.577c-8.889-37.335-40-61.775-79.556-61.775h-90.222c-39.111 0-70.223 24.439-79.112 61.775l-17.333 74.22-9.333 3.557-64.889-39.997c-32.889-20.446-72.445-15.114-99.556 12.889l-62.666 62.225c-28 28.44-32.89 67.106-12.445 99.553l40 64.444-3.111 8.889-74.222 17.777c-36.889 8.889-61.333 40-61.333 79.112v87.111c0 38.666 24 69.777 61.333 79.111l73.333 18.222 4 9.333-40.445 64.444c-20.445 32-15.555 70.666 12.444 99.555l62.667 62.667c27.111 27.556 66.223 32.889 99.556 12.444l64.444-39.555 10.222 4 17.333 74.222c8.889 37.333 40 61.778 79.112 61.778h90.222c39.556 0 70.667-24.444 79.556-61.778l16.888-74.222 10.226-4 64.887 39.555c32.884 20.445 72.001 15.112 99.553-12.444l62.225-62.667c27.996-28.889 33.328-67.555 12.445-99.555l-40.004-64.444 3.557-9.333 73.332-18.222c37.335-8.889 61.781-40.445 61.781-79.111v-87.111c0-39.111-24.446-69.778-61.781-79.112l-73.776-17.777-3.557-8.889 40.448-64.444c20.439-32.447 15.551-71.113-12.445-99.553l-62.669-62.225c-27.552-28.003-66.669-33.335-99.553-12.889l-64.894 39.997-9.776-3.557-16.888-74.22zM515.467 63.911h61.334c7.556 0 10.667 3.113 12 9.783l26.222 108.442c31.111 7.113 56.889 18.22 81.332 33.778l95.116-58.225c5.332-3.55 10.663-3.106 15.995 1.782l42.223 42.667c5.332 4.888 5.332 10.22 1.782 15.551l-58.668 95.114c14.22 23.111 26.221 51.556 32.44 80.445l109.336 25.777c6.67 1.333 9.776 4.889 9.776 12v59.556c0 7.999-3.106 11.111-9.776 12.444l-108.885 26.222c-6.67 29.778-19.558 58.667-32.003 80.889l58.225 94.667c3.55 5.777 3.55 11.111-1.338 16l-42.667 42.222c-5.775 4.889-10.22 5.334-16.439 1.778l-94.672-57.777c-23.998 14.222-51.554 26.666-81.776 33.333l-26.222 109.333c-1.333 6.667-4.444 9.778-12 9.778h-61.334c-7.556 0-11.111-3.111-12-9.778l-26.222-108.444c-29.778-7.556-61.334-20.445-82.222-34.222l-94.667 58.222c-6.223 3.556-11.111 3.112-16.445-2.222l-42.667-41.778c-5.333-4.889-4.889-10.222-1.333-16.444l58.667-94.667c-12.889-22.222-25.778-51.111-32.444-81.334l-108.444-25.777c-7.111-1.333-10.222-4.445-10.222-12.444v-59.556c0-7.111 3.555-10.667 10.222-12l108.889-25.777c6.222-28.889 18.667-56.889 32.444-80.445l-58.667-95.114c-3.555-5.775-3.555-11.107 1.333-15.995l42.667-42.667c5.334-4.888 10.667-5.338 16-1.782l95.111 58.668c24-15.558 52.445-27.109 81.778-33.778l26.222-108.442c0.889-6.67 4.444-9.783 12-9.783zM546.133 293.247c-92.445 0-168.445 76-168.445 168.445 0 92 76 167.111 168.445 167.111 92 0 167.554-75.111 167.554-167.111 0-92.445-75.553-168.445-167.554-168.445zM461.244 461.692c0-47.112 38.223-85.333 84.889-85.333 45.778 0 84 38.666 84 85.333 0 45.778-38.223 84.445-84 84.445-46.222 0-84.889-38.223-84.889-84.445z" />
<glyph unicode="&#xe91c;" glyph-name="gate" horiz-adv-x="1152" d="M917.062 706.917l117.914 88.75c16.256 12.083 15.834 35 0 47.083l-117.914 89.167c-24.582 18.75-55.418 8.75-55.418-24.167v-56.25h-570.832v56.25c0 32.083-30.417 43.75-55.834 24.167l-117.5-89.167c-16.25-12.083-16.25-35 0-47.083l117.5-88.75c25-19.167 55.834-7.917 55.834 23.75v57.5h570.832v-57.5c0-31.667 30.419-42.916 55.418-23.75zM462.063-29.331c58.333 0 87.083 29.165 87.083 87.078v485.836c0 52.5-39.167 82.5-82.5 82.5-31.667 0-62.083-13.75-81.667-45.417l-315.834-484.168c-10.833-17.082-17.083-34.579-17.083-54.579 0-39.168 26.25-71.251 77.916-71.251h332.084zM1099.981 41.92c0-39.168-25.837-71.251-77.92-71.251h-332.083c-57.915 0-87.082 29.165-87.082 87.078v485.836c0 52.5 39.165 82.5 82.499 82.5 31.667 0 62.502-13.75 82.086-45.417l315.411-484.168c10.835-17.082 17.088-34.579 17.088-54.579zM439.979 70.253h-258.749c-2.5 0-4.584 1.664-4.584 3.75 0 1.664 0.417 2.912 1.667 4.582l263.75 422.915c0.833 2.083 2.5 2.917 3.75 2.917 2.083 0 3.333-2.084 3.333-4.167v-420.833c0-6.669-2.083-9.165-9.167-9.165zM712.064 70.253h258.746c2.502 0 4.589 1.664 4.589 3.75 0 1.664-0.422 2.912-1.67 4.582l-263.334 422.498c-1.248 2.5-2.912 3.334-4.166 3.334-2.080 0-3.334-2.084-3.334-4.167v-420.833c0-6.669 2.086-9.165 9.171-9.165z" />
<glyph unicode="&#xe91d;" glyph-name="expand" d="M487.75 532.786c0-38.5-27-65-65.5-65-16.5 0-32.5 6-44 18l-135.001 136-103 108.5 11-140.001v-31c0-35.999-26.5-61.5-62.5-61.5-35.5 0-62.5 26-62.5 61.5v270.501c0 63 36.5 99 99 99h277.5c35.5 0 61.5-26.5 61.5-62.5s-26-62-61.5-62h-36.5l-142 10.5 109-102.5 135.5-135.5c12-12 19-27 19-44zM997.749 55.786c0-62.998-36.498-98.999-98.999-98.999h-277.5c-35.5 0-61.5 26.5-61.5 62.501s26 61.996 61.5 61.996h36.5l141.496-10.496-108.496 102.495-135.5 135.503c-12 12-19 27-19 44 0 38.5 27 65 65.5 65 16.5 0 32-6 44-18l134.999-136 103-108.504-11.001 140.003v31c0 35.999 26.5 61.5 62.501 61.5 35.504 0 62.501-26 62.501-61.5v-270.5z" />
<glyph unicode="&#xe91e;" glyph-name="chart" horiz-adv-x="1472" d="M1471.443 81.325c0-90.298-54.598-141.747-148.576-141.747h-122.848c-93.978 0-148.051 51.45-148.051 141.747v721.875c0 89.775 54.074 141.75 148.051 141.75h122.848c93.978 0 148.576-51.975 148.576-141.75v-721.875zM1218.918 46.15h85.050c37.274 0 53.024 15.226 53.024 51.45v688.8c0 36.225-15.75 51.975-52.499 51.975h-85.574c-36.749 0-52.499-15.75-52.499-51.975v-688.8c0-36.224 15.75-51.45 52.499-51.45zM825.696-60.422h-122.854c-94.498 0-148.573 51.45-148.573 141.747v568.575c0 90.3 54.075 141.75 148.573 141.75h122.854c93.971 0 148.57-51.45 148.57-141.225v-569.1c0-90.298-54.598-141.747-148.57-141.747zM721.741 46.15h85.056c36.749 0 52.499 15.226 52.499 51.45v536.025c0 36.225-15.75 51.975-52.499 51.975h-85.056c-36.749 0-52.499-15.75-52.499-51.975v-536.025c0-36.224 15.75-51.45 52.499-51.45zM327.994-60.422h-122.325c-94.5 0-148.575 51.45-148.575 141.747v414.75c0 90.3 54.075 141.75 148.575 141.75h122.325c94.5 0 148.575-51.45 148.575-141.225v-415.276c0-90.298-54.075-141.747-148.575-141.747zM224.569 46.15h84.525c37.275 0 53.025 15.226 53.025 51.45v382.2c0 36.225-15.75 51.975-52.5 51.975h-85.050c-36.75 0-53.025-15.75-53.025-51.975v-382.2c0-36.224 16.275-51.45 53.025-51.45z" />
<glyph unicode="&#xe91f;" glyph-name="copy" horiz-adv-x="878" d="M520.382-34.284c84.187 0 129.141 45.334 129.141 129.902v70.095h62.859c84.187 0 129.141 45.714 129.141 130.287v294.858c0 52.952-11.43 86.857-42.667 119.238l-188.192 191.619c-30.096 30.476-65.902 42.667-112.762 42.667h-140.951c-83.81 0-128.762-45.333-128.762-129.905v-70.476h-62.858c-84.19 0-129.143-45.333-129.143-129.905v-518.478c0-84.953 44.952-129.902 129.143-129.902h355.049zM702.859 252.952h-53.336v131.808c0 52.955-7.236 79.238-40.38 112.763l-203.81 206.476c-27.429 28.19-52.19 37.714-89.905 39.619v62.857c0 32.762 16.381 50.667 51.047 50.667h151.239v-169.905c0-49.905 28.189-77.714 77.712-77.714h158.861v-305.903c0-32.763-16.764-50.668-51.429-50.668zM604.95 678.476h126.479l-144.764 146.667v-128.381c0-12.571 5.335-18.286 18.286-18.286zM510.859 52.57h-336.383c-34.666 0-51.047 17.905-51.047 51.049v502.476c0 32.762 16.381 50.667 51.047 50.667h109.714v-196.571c0-60.952 29.715-89.907 89.905-89.907h188.188v-266.664c0-33.143-16.759-51.049-51.424-51.049zM381.333 443.811h171.812l-195.050 198.093v-174.478c0-16.379 7.238-23.615 23.238-23.615z" />
<glyph unicode="&#xe920;" glyph-name="cursor" horiz-adv-x="896" d="M892.499 5.939c0-23.187-14.438-35.437-42.438-35.437h-251.998c-28 0-42.438 12.25-42.438 35.437 0 22.746 14.438 34.995 42.438 34.995h86.622v808.065h-86.622c-28 0-42.438 12.25-42.438 35.438 0 22.75 14.438 35 42.438 35h251.998c28 0 42.438-12.25 42.438-35 0-23.188-14.438-35.438-42.438-35.438h-84.435v-808.065h84.435c28 0 42.438-12.25 42.438-34.995zM331.625 171.75c0-36.749-23.625-59.066-60.375-59.066-36.312 0-59.5 22.317-59.5 59.066v491.75h-155.75c-30.625 0-52.5 19.687-52.5 49.875 0 30.625 21.875 50.313 52.5 50.313h431.375c30.625 0 52.5-19.688 52.5-50.313 0-30.188-22.313-49.875-52.5-49.875h-155.75v-491.75z" />
<glyph unicode="&#xe921;" glyph-name="arrow-up" horiz-adv-x="896" d="M447.75-52c38 0 64 26.502 64 66.003v585.497l-4 108.5 114-129.5 114.001-113c11.501-12 27.002-20 45.997-20 35.002 0 61.005 26 61.005 62.5 0 16.5-6.502 32.5-20 46l-327.502 327.5c-12 13-30 20-47.5 20s-35-7-47.5-20l-327-327.5c-13.5-13.5-20-29.5-20-46 0-36.5 26-62.5 61-62.5 19 0 34 8 46 20l113.5 113 114.5 129.5-4.5-108.5v-585.497c0-39.501 26-66.003 64-66.003z" />
<glyph unicode="&#xe922;" glyph-name="case" horiz-adv-x="1205" d="M1011.296-7.529h-817.414c-104 0-158.588 54.115-158.588 156.708v463.527c0 103.058 54.588 157.176 158.588 157.176h118.118v41.412c0 88.941 52.235 132.235 140.705 132.235h299.766c91.293 0 140.704-43.294 140.704-132.235v-41.412h118.121c103.996 0 158.118-54.118 158.118-157.176v-463.527c0-102.593-54.121-156.708-158.118-156.708zM796.238 769.882v43.765c0 28.235-16.944 44.236-47.062 44.236h-293.647c-30.118 0-47.059-16-47.059-44.236v-43.765h387.768zM199.529 94.118h805.647c37.177 0 56.94 19.293 56.94 57.41v459.295c0 38.118-19.763 57.412-56.94 57.412h-805.647c-36.706 0-56.471-19.294-56.471-57.412v-459.295c0-38.117 19.764-57.41 56.471-57.41z" />
<glyph unicode="&#xe923;" glyph-name="archive" horiz-adv-x="1170" d="M1026.143 135.285v473.501c46.497 16 72.997 58 72.997 114.5v70.5c0 73.5-44.5 121.5-117.994 121.5h-791.503c-71.5 0-118.5-48-118.5-121.5v-70.5c0-56.5 27-98.5 73.5-114.5v-473.501c0-107.001 59.5-165.5 166.5-165.5h548.498c106.503 0 166.502 58.5 166.502 165.5zM207.643 705.785c-21 0-31 10.5-31 31.5v42.5c0 21 10 31.5 31 31.5h755.502c20.999 0 30.998-10.5 30.998-31.5v-42.5c0-21-9.999-31.5-30.998-31.5h-755.502zM850.139 81.284h-529.997c-40 0-61.5 20.005-61.5 61.001v459.501h653.003v-459.501c0-40.997-22.001-61.001-61.506-61.001zM788.641 441.285v16c0 27-18.995 45.5-44.997 45.5h-316.001c-26.5 0-45-18.5-45-45.5v-16c0-26.5 19-45.5 45-45.5h316.001c26.002 0 44.997 19 44.997 45.5z" />
</font>
</defs>
</svg>
