<?xml version="1.0" encoding="UTF-8" standalone="no"?>
<svg
   width="24"
   height="24"
   viewBox="0 0 24 24"
   fill="none"
   version="1.1"
   id="svg1038"
   sodipodi:docname="binance-coin.svg"
   inkscape:version="1.1 (c4e8f9e, 2021-05-24)"
   xmlns:inkscape="http://www.inkscape.org/namespaces/inkscape"
   xmlns:sodipodi="http://sodipodi.sourceforge.net/DTD/sodipodi-0.dtd"
   xmlns="http://www.w3.org/2000/svg"
   xmlns:svg="http://www.w3.org/2000/svg">
  <defs
     id="defs1042" />
  <sodipodi:namedview
     id="namedview1040"
     pagecolor="#ffffff"
     bordercolor="#666666"
     borderopacity="1.0"
     inkscape:pageshadow="2"
     inkscape:pageopacity="0.0"
     inkscape:pagecheckerboard="0"
     showgrid="false"
     width="24px"
     inkscape:zoom="7.1227381"
     inkscape:cx="-12.846183"
     inkscape:cy="3.5800839"
     inkscape:window-width="1296"
     inkscape:window-height="811"
     inkscape:window-x="0"
     inkscape:window-y="23"
     inkscape:window-maximized="0"
     inkscape:current-layer="svg1038" />
  <g
     id="binance_coin"
     transform="scale(1024)">
    <path
       style="color:#000000;fill:#f3ba2f;-inkscape-stroke:none"
       d="m 0.01171875,0 c 0.0064922,0 0.01171875,0.00522656 0.01171875,0.01171875 0,0.0064922 -0.0052266,0.01171875 -0.01171875,0.01171875 C 0.00522656,0.0234375 0,0.01821094 0,0.01171875 0,0.00522656 0.00522656,0 0.01171875,0 Z"
       id="shape" />
    <path
       style="color:#000000;clip-rule:evenodd;fill:#ffffff;fill-rule:evenodd;-inkscape-stroke:none"
       d="M 0.00830544,0.0103162 0.0117191,0.00690261 0.0151346,0.010318 0.017121,0.00833164 0.0117191,0.00292969 0.00631912,0.00832984 Z M 0.00491607,0.00973214 0.00690236,0.0117184 0.00491598,0.0137048 0.00292969,0.0117185 Z M 0.0117192,0.0165349 0.0083055,0.0131213 0.00631626,0.015105 l 2.78e-6,2.8e-6 0.00540016,0.0054 0.0054018,-0.0054018 10e-7,-1.1e-6 L 0.0151345,0.0131197 Z M 0.0205081,0.0117194 0.0185217,0.0137058 0.0165354,0.0117195 0.0185218,0.00973309 Z m -0.0067733,-1.7e-6 h -9e-7 l 1.8e-6,1e-6 -9e-7,1.1e-6 -0.0020156,0.0020156 -0.00201386,-0.0020138 -2.77e-6,-2.9e-6 2.77e-6,-2.8e-6 3.5306e-4,-3.531e-4 1.71e-4,-1.711e-4 h 2e-7 L 0.0117192,0.00970209 Z"
       id="shape_2" />
  </g>
</svg>
