<svg width="20" height="20" viewBox="0 0 20 20" fill="none" xmlns="http://www.w3.org/2000/svg">
<g id="bitcoin">
<rect id="shape" x="1.6665" y="1.66667" width="16.6667" height="16.6667" rx="8.33333" fill="#F7931A"/>
<path id="shape_2" fill-rule="evenodd" clip-rule="evenodd" d="M13.6732 8.81291C13.8391 7.70406 12.9949 7.10797 11.8404 6.71031L12.2149 5.20823L11.3006 4.98036L10.936 6.44286C10.6956 6.38297 10.4488 6.32646 10.2035 6.27047L10.5706 4.79833L9.65684 4.57047L9.2821 6.07203C9.08314 6.02672 8.88783 5.98193 8.69824 5.93479L8.69928 5.9301L7.43835 5.61526L7.19512 6.59182C7.19512 6.59182 7.8735 6.74729 7.85918 6.75693C8.22949 6.84937 8.29642 7.09443 8.28522 7.2887L7.85866 8.99989C7.88418 9.0064 7.91725 9.01578 7.95371 9.03036L7.92275 9.02263C7.90154 9.01731 7.87955 9.0118 7.8571 9.0064L7.25918 11.4035C7.21387 11.516 7.09902 11.6848 6.84017 11.6207C6.84928 11.634 6.17559 11.4548 6.17559 11.4548L5.72168 12.5015L6.91152 12.7981C7.04437 12.8314 7.17562 12.8656 7.30551 12.8995L7.30561 12.8995L7.30626 12.8997C7.39254 12.9222 7.47821 12.9445 7.56335 12.9663L7.18496 14.4856L8.09824 14.7134L8.47298 13.2103C8.72246 13.278 8.96465 13.3405 9.20163 13.3994L8.82819 14.8955L9.74251 15.1233L10.1209 13.6069C11.68 13.902 12.8524 13.783 13.3459 12.3728C13.7436 11.2374 13.3261 10.5824 12.5058 10.1554C13.1032 10.0176 13.5532 9.62463 13.6732 8.81291ZM11.5842 11.7423C11.325 12.784 9.69442 12.3534 8.94837 12.1563L8.94836 12.1563C8.88124 12.1386 8.82128 12.1228 8.77012 12.1101L9.2722 10.0973C9.3345 10.1128 9.41061 10.1299 9.49684 10.1493C10.2685 10.3224 11.8498 10.6772 11.5842 11.7423ZM9.65187 9.2152C10.2739 9.3812 11.6307 9.74328 11.867 8.79651C12.1083 7.8281 10.7897 7.53618 10.1456 7.39361C10.0732 7.37757 10.0093 7.36342 9.9571 7.35041L9.50189 9.17594C9.54489 9.18665 9.59534 9.20012 9.65187 9.2152Z" fill="white"/>
</g>
</svg>
