<?xml version="1.0" encoding="UTF-8" standalone="no"?>
<svg
   width="24"
   height="24"
   viewBox="0 0 24 24"
   fill="none"
   version="1.1"
   id="svg864"
   sodipodi:docname="bitcoin-cash.svg"
   inkscape:version="1.1 (c4e8f9e, 2021-05-24)"
   xmlns:inkscape="http://www.inkscape.org/namespaces/inkscape"
   xmlns:sodipodi="http://sodipodi.sourceforge.net/DTD/sodipodi-0.dtd"
   xmlns="http://www.w3.org/2000/svg"
   xmlns:svg="http://www.w3.org/2000/svg">
  <defs
     id="defs868" />
  <sodipodi:namedview
     id="namedview866"
     pagecolor="#ffffff"
     bordercolor="#666666"
     borderopacity="1.0"
     inkscape:pageshadow="2"
     inkscape:pageopacity="0.0"
     inkscape:pagecheckerboard="0"
     showgrid="false"
     width="24px"
     inkscape:zoom="13.762106"
     inkscape:cx="6.3580385"
     inkscape:cy="10.100198"
     inkscape:window-width="1296"
     inkscape:window-height="810"
     inkscape:window-x="0"
     inkscape:window-y="23"
     inkscape:window-maximized="0"
     inkscape:current-layer="svg864" />
  <g
     id="bitcoin_cash"
     transform="scale(1024)">
    <path
       style="color:#000000;fill:#0ac18e;-inkscape-stroke:none"
       d="m 0.01171875,0 c 0.0064922,0 0.01171875,0.00522656 0.01171875,0.01171875 0,0.0064922 -0.0052266,0.01171875 -0.01171875,0.01171875 C 0.00522656,0.0234375 0,0.01821094 0,0.01171875 0,0.00522656 0.00522656,0 0.01171875,0 Z"
       id="shape" />
    <path
       style="color:#000000;clip-rule:evenodd;fill:#ffffff;fill-rule:evenodd;-inkscape-stroke:none"
       d="M 0.0153743,0.00778369 C 0.0147854,0.00644824 0.0134324,0.0061626 0.0117757,0.00643945 L 0.0112434,0.004375 0.00998807,0.00469922 0.0105115,0.00675781 c -1.189e-4,2.99e-5 -2.389e-4,5.829e-5 -3.596e-4,8.681e-5 -2.143e-4,5.067e-5 -4.3053e-4,1.0179e-4 -6.4577e-4,1.627e-4 L 0.0089827,0.00496143 0.00772781,0.00528516 0.00826004,0.00734961 c -2.71e-4,7.715e-5 -0.00253418,6.5723e-4 -0.00253418,6.5723e-4 l 3.4473e-4,0.00134423 c 0,0 9.2236e-4,-2.5879e-4 9.1308e-4,-2.3779e-4 5.1172e-4,-1.3379e-4 7.5293e-4,1.2207e-4 8.6573e-4,3.6279e-4 L 0.00931277,0.0151333 c 1.807e-5,1.636e-4 -1.171e-5,4.434e-4 -3.6279e-4,5.381e-4 2.1e-5,1.22e-5 -9.1308e-4,2.353e-4 -9.1308e-4,2.353e-4 l 1.3671e-4,0.0015674 c 0,0 0.00224269,-5.742e-4 0.00253709,-6.484e-4 l 5.386e-4,0.0020879 0.0012549,-3.242e-4 -5.381e-4,-0.0021031 c 3.447e-4,-8.01e-5 6.811e-4,-1.635e-4 0.0010083,-2.495e-4 L 0.0135096,0.0183276 0.0147644,0.0180034 0.0142263,0.0159185 C 0.0161599,0.0154487 0.0175247,0.014229 0.0172454,0.0123638 0.0170667,0.0112397 0.0158387,0.0103179 0.0148186,0.0102139 0.0154456,0.00965723 0.0157639,0.0088457 0.0153743,0.00778369 Z M 0.0147706,0.0127061 C 0.0149858,0.014299 0.0131069,0.0146863 0.012042,0.0149059 c -1.7e-4,3.51e-5 -3.193e-4,6.58e-5 -4.359e-4,9.65e-5 L 0.0108683,0.0122393 c 8.18e-5,-2.15e-5 1.801e-4,-4.96e-5 2.912e-4,-8.13e-5 h 1e-7 c 0.0010447,-2.984e-4 0.0032293,-9.224e-4 0.003611,5.481e-4 z M 0.01093,0.0108828 c 8.945e-4,-1.813e-4 0.002524,-5.115e-4 0.0022939,-0.00193895 l 5e-7,-4.9e-7 C 0.0127533,0.00761424 0.011117,0.00809846 0.0102389,0.00835832 c -1.258e-4,3.723e-5 -2.36e-4,6.985e-5 -3.2507e-4,9.188e-5 l 6.7187e-4,0.0025073 c 9.24e-5,-2.37e-5 2.1e-4,-4.75e-5 3.443e-4,-7.47e-5 z"
       id="shape_2" />
  </g>
</svg>
