<?xml version="1.0" encoding="UTF-8" standalone="no"?>
<svg
   width="24"
   height="24"
   viewBox="0 0 24 24"
   fill="none"
   version="1.1"
   id="svg611"
   sodipodi:docname="bitcoin.svg"
   inkscape:version="1.1 (c4e8f9e, 2021-05-24)"
   xmlns:inkscape="http://www.inkscape.org/namespaces/inkscape"
   xmlns:sodipodi="http://sodipodi.sourceforge.net/DTD/sodipodi-0.dtd"
   xmlns="http://www.w3.org/2000/svg"
   xmlns:svg="http://www.w3.org/2000/svg">
  <defs
     id="defs615" />
  <sodipodi:namedview
     id="namedview613"
     pagecolor="#ffffff"
     bordercolor="#666666"
     borderopacity="1.0"
     inkscape:pageshadow="2"
     inkscape:pageopacity="0.0"
     inkscape:pagecheckerboard="0"
     showgrid="false"
     width="24px"
     inkscape:zoom="7.1784705"
     inkscape:cx="-0.48756904"
     inkscape:cy="-2.995067"
     inkscape:window-width="1296"
     inkscape:window-height="811"
     inkscape:window-x="0"
     inkscape:window-y="23"
     inkscape:window-maximized="0"
     inkscape:current-layer="svg611" />
  <g
     id="bitcoin"
     transform="scale(1024)">
    <path
       style="color:#000000;fill:#f7931a;-inkscape-stroke:none"
       d="m 0.01171875,0 c 0.0064922,0 0.01171875,0.00522656 0.01171875,0.01171875 0,0.0064922 -0.0052266,0.01171875 -0.01171875,0.01171875 C 0.00522656,0.0234375 0,0.01821094 0,0.01171875 0,0.00522656 0.00522656,0 0.01171875,0 Z"
       id="shape" />
    <path
       style="color:#000000;clip-rule:evenodd;fill:#ffffff;fill-rule:evenodd;-inkscape-stroke:none"
       d="M 0.0168849,0.0100494 C 0.0171181,0.00849009 0.0159309,0.00765183 0.0143075,0.00709262 l 5.266e-4,-0.0021123 -0.0012858,-3.2043e-4 -5.127e-4,0.00205664 c -3.38e-4,-8.423e-5 -6.852e-4,-1.637e-4 -0.0010301,-2.4244e-4 L 0.0125218,0.0044039 0.0112368,0.00408347 0.0107098,0.00619504 C 0.01043,0.00613132 0.0101554,0.00606833 0.00988876,0.00600205 l 1.47e-6,-6.59e-6 L 0.00811704,0.00555271 0.00777499,0.006926 c 0,0 9.5398e-4,2.1863e-4 9.3384e-4,2.3218e-4 5.2075e-4,1.3e-4 6.1487e-4,4.7461e-4 5.9912e-4,7.478e-4 L 0.0087081,0.0103124 c 3.589e-5,9.1e-6 8.24e-5,2.23e-5 1.3367e-4,4.28e-5 l -4.359e-5,-1.09e-5 c -2.981e-5,-7.5e-6 -6.072e-5,-1.52e-5 -9.228e-5,-2.28e-5 l -8.4082e-4,0.003371 c -6.372e-5,1.582e-4 -2.2522e-4,3.955e-4 -5.8923e-4,3.054e-4 1.282e-5,1.87e-5 -9.3457e-4,-2.333e-4 -9.3457e-4,-2.333e-4 l -6.3831e-4,0.0014718 0.00167322,4.171e-4 c 1.8684e-4,4.69e-5 3.7144e-4,9.5e-5 5.5412e-4,1.426e-4 l 1e-7,10e-8 h 4e-8 c 1.2161e-4,3.17e-5 2.4237e-4,6.32e-5 3.6237e-4,9.39e-5 l -5.3211e-4,0.0021365 0.0012843,3.204e-4 5.2698e-4,-0.0021138 c 3.5083e-4,9.53e-5 6.9141e-4,1.832e-4 0.00102461,2.659e-4 L 0.0100715,0.018603 0.0113573,0.0189234 0.0118894,0.016791 C 0.0140819,0.0172059 0.0157306,0.0170385 0.0164245,0.0150555 0.0169837,0.0134588 0.0163967,0.0125378 0.0152431,0.0119372 0.0160832,0.0117435 0.016716,0.0111909 0.0168849,0.0100494 Z M 0.0139466,0.0141689 C 0.0135821,0.0156338 0.0112892,0.0150282 0.01024,0.0147511 l -1e-7,-10e-8 c -9.43e-5,-2.49e-5 -1.786e-4,-4.71e-5 -2.5054e-4,-6.5e-5 L 0.0106954,0.0118556 c 8.76e-5,2.18e-5 1.947e-4,4.58e-5 3.159e-4,7.31e-5 0.0010851,2.434e-4 0.0033089,7.424e-4 0.0029353,0.0022402 z M 0.0112297,0.0106151 c 8.747e-4,2.335e-4 0.0027826,7.426e-4 0.003115,-5.888e-4 C 0.0146841,0.00866451 0.0128297,0.008254 0.011924,0.00805351 c -1.019e-4,-2.255e-5 -1.917e-4,-4.245e-5 -2.651e-4,-6.074e-5 L 0.0110188,0.0105599 c 6.04e-5,1.51e-5 1.314e-4,3.4e-5 2.109e-4,5.52e-5 z"
       id="shape_2" />
  </g>
</svg>
