<svg width="117" height="115" viewBox="0 0 117 115" fill="none" xmlns="http://www.w3.org/2000/svg">
<path fill-rule="evenodd" clip-rule="evenodd" d="M20.6172 16.1146L32.2907 10.9377L50.3639 20.0005L37.5783 26.4732L38.4534 40.8658L22.1381 29.951L20.6172 16.1146ZM74.2995 40.8284L75.333 26.481L62.3742 20.001L80.2915 10.9348L92.131 16.1131C91.798 18.859 91.4689 21.5642 91.1417 24.2694C90.9464 25.8782 90.777 27.4914 90.5371 29.0934C90.4805 29.4734 90.279 29.9549 89.9868 30.1563C84.954 33.6273 79.8971 37.0614 74.845 40.5023C74.7193 40.5877 74.584 40.659 74.2995 40.8284ZM56.4566 59.502L68.285 51.4215L66.9273 70.69L56.377 78.7764L45.6674 70.6934L44.4646 51.4244L56.4566 59.502ZM56.2954 0.448975L73.9052 8.22377C68.0626 11.1389 62.2202 14.0542 56.3779 16.9697L38.6875 8.14563L56.2954 0.448975ZM25.0892 55.2026L23.007 36.8954L38.8497 47.6583L40.0511 66.4498L25.0892 55.203V55.2026ZM89.6625 36.8954C89.3387 39.553 89.0402 42.0189 88.738 44.4843C88.333 47.783 87.9358 51.0827 87.503 54.377C87.455 54.7391 87.2871 55.1943 87.0194 55.4006C82.319 59.0191 77.5942 62.6066 72.8736 66.1979C72.8146 66.2426 72.7388 66.263 72.5498 66.3513L73.8198 47.6617L89.662 36.8954H89.6625Z" fill="white"/>
<path fill-rule="evenodd" clip-rule="evenodd" d="M0.374512 114.309V93.0008C3.60582 93.1149 6.82417 93.0222 9.98734 93.4002C12.8996 93.7487 14.8321 96.1539 14.9339 99.128C15.0384 102.207 15.0437 105.295 14.9319 108.374C14.812 111.669 12.2812 114.158 8.94143 114.286C6.11314 114.395 3.27765 114.309 0.374512 114.309ZM4.42096 110.705C5.76865 110.705 7.0228 110.733 8.27598 110.697C9.4735 110.663 10.2867 110.046 10.6374 108.87C10.8191 108.251 10.916 107.61 10.9253 106.964C10.9589 104.804 10.9483 102.642 10.9301 100.482C10.927 99.9689 10.8701 99.4581 10.7603 98.9576C10.5108 97.8404 9.87268 96.963 8.71161 96.861C7.29387 96.7353 5.85693 96.831 4.42 96.831C4.42096 101.453 4.42096 106.034 4.42096 110.705ZM116.697 114.306H113.633L113.448 113.156C113.187 113.331 112.976 113.473 112.763 113.613C111.144 114.682 109.38 114.924 107.548 114.401C105.651 113.86 104.471 112.427 104.319 110.556C104.098 107.826 104.055 105.043 104.328 102.323C104.566 99.9404 106.345 98.5961 108.741 98.5708C110.107 98.5563 111.476 98.8149 112.908 98.9571V92.0161H116.696L116.697 114.306ZM112.916 102.4C111.971 102.251 111.067 102.029 110.154 101.982C108.855 101.915 108.006 102.599 107.935 103.901C107.836 105.703 107.872 107.518 107.947 109.324C107.982 110.162 108.403 110.881 109.269 111.183C110.378 111.569 111.888 111.119 112.6 110.17C112.765 109.951 112.9 109.643 112.903 109.375C112.927 107.132 112.917 104.887 112.917 102.4H112.916ZM26.4384 103.109C26.1923 102.166 25.5629 101.764 24.8552 101.495C23.4302 100.953 21.9736 101.021 20.517 101.375C20.2364 101.444 19.959 101.527 19.6074 101.623L18.8512 99.5235C20.7665 98.6213 22.7087 98.1598 24.7736 98.2806C25.2534 98.3087 25.7365 98.3582 26.2053 98.4582C28.9136 99.0324 30.3621 100.55 30.4609 103.357C30.589 106.974 30.4926 110.598 30.4926 114.277H27.1787L26.9293 112.955C25.7351 114.033 24.3869 114.59 22.844 114.65C20.4158 114.745 18.3187 113.478 17.5779 111.456C16.8117 109.363 17.6225 106.769 19.5177 105.305C21.1633 104.035 23.0882 103.526 25.0965 103.262C25.5168 103.207 25.939 103.166 26.4384 103.109ZM26.5378 105.316C25.3182 105.727 24.23 106.001 23.2225 106.457C22.0811 106.975 21.4152 107.934 21.2813 109.232C21.1479 110.524 21.9784 111.533 23.2484 111.566C24.551 111.6 25.5566 110.993 26.3607 110.006C26.4672 109.875 26.5282 109.665 26.5301 109.491C26.5445 108.198 26.5378 106.904 26.5378 105.316ZM33.5185 106.429C33.613 105.21 33.5809 104.001 33.8198 102.85C34.4172 99.9753 36.7143 98.318 39.9811 98.2539C43.4451 98.186 46.0038 99.8914 46.4428 103.026C46.7604 105.326 46.7597 107.659 46.4409 109.959C46.0105 113.026 43.5042 114.695 40.0963 114.658C36.7412 114.621 34.4493 113.02 33.827 110.109C33.5694 108.908 33.6111 107.642 33.519 106.429H33.5185ZM42.8589 106.801C42.8013 105.668 42.8051 104.853 42.7111 104.052C42.5451 102.629 41.6253 101.746 40.3141 101.667C38.9803 101.587 37.8385 102.284 37.7041 103.641C37.5189 105.506 37.5199 107.41 37.6667 109.279C37.7646 110.527 38.8076 111.216 40.0464 111.245C41.3821 111.277 42.2754 110.686 42.5763 109.37C42.7898 108.434 42.7936 107.449 42.8593 106.801H42.8589ZM62.7816 95.0513L61.2252 97.8894C59.8804 97.1217 58.5399 96.5684 57.0214 96.5713C55.0342 96.5757 53.6937 97.7623 53.65 99.7788C53.5893 102.538 53.5912 105.299 53.6558 108.058C53.7033 110.053 55.0203 111.234 56.9806 111.219C58.2823 111.209 59.0437 110.978 61.2315 109.913C61.4809 110.366 61.7386 110.825 61.9886 111.287C62.2448 111.76 62.4938 112.236 62.7428 112.704C59.9097 115.308 54.7017 115.488 51.824 113.084C50.4504 111.937 49.6875 110.42 49.6472 108.643C49.5762 105.479 49.5657 102.311 49.6472 99.1469C49.7144 96.5349 51.3936 94.3592 53.9053 93.5298C57.0704 92.4859 60.0109 93.0246 62.7816 95.0513ZM85.2468 106.616C85.1892 107.694 85.2266 108.788 85.0539 109.846C84.6489 112.33 82.9928 114.004 80.5248 114.462C78.2099 114.891 75.9914 114.707 74.1293 113.03C73.1074 112.109 72.5101 110.913 72.44 109.554C72.3431 107.671 72.274 105.771 72.4175 103.895C72.6502 100.852 74.6801 98.8513 77.7027 98.5951C78.7501 98.5072 79.8555 98.5611 80.8765 98.8028C83.675 99.4643 85.1225 101.618 85.1969 104.992C85.2088 105.532 85.1983 106.073 85.1983 106.614L85.2463 106.616L85.2468 106.616ZM76.0974 106.628L76.1252 106.632C76.1252 107.064 76.106 107.497 76.1305 107.928C76.1545 108.357 76.1924 108.79 76.2759 109.211C76.545 110.563 77.4057 111.282 78.7347 111.301C80.033 111.321 81.0986 110.585 81.2104 109.254C81.3582 107.482 81.3594 105.701 81.2137 103.928C81.1034 102.597 80.0508 101.87 78.7453 101.882C77.3803 101.894 76.4994 102.633 76.2903 104.048C76.1641 104.898 76.1574 105.767 76.0974 106.628ZM96.9135 98.8771H100.724V114.303H97.4403L97.1563 113.139C96.2068 113.586 95.2986 114.179 94.3035 114.452C91.09 115.338 88.6604 113.671 88.5198 110.317C88.3615 106.544 88.4838 102.759 88.4838 98.9139H92.1805V99.6875C92.1805 102.473 92.1695 105.259 92.1882 108.045C92.193 108.689 92.2525 109.341 92.3705 109.974C92.5048 110.696 92.9453 111.154 93.699 111.304C95.2875 111.621 96.913 110.318 96.9135 108.7V98.8775V98.8771ZM69.0063 114.303H65.277V92.0205H69.0063V114.303Z" fill="white"/>
</svg>
