<svg width="116" height="105" viewBox="0 0 116 105" fill="none" xmlns="http://www.w3.org/2000/svg">
<path fill-rule="evenodd" clip-rule="evenodd" d="M64.7297 29.2031C62.7306 29.2031 61.1523 30.923 61.1523 33.0642C61.1523 35.2053 62.7657 36.9252 64.7297 36.9252C66.7288 36.9252 68.3071 35.2053 68.3071 33.0642C68.3071 30.923 66.6938 29.2031 64.7297 29.2031Z" fill="white"/>
<path fill-rule="evenodd" clip-rule="evenodd" d="M51.9284 29.2031C49.9293 29.2031 48.3511 30.923 48.3511 33.0642C48.3511 35.2053 49.9644 36.9252 51.9284 36.9252C53.9276 36.9252 55.5058 35.2053 55.5058 33.0642C55.5409 30.923 53.9276 29.2031 51.9284 29.2031Z" fill="white"/>
<path fill-rule="evenodd" clip-rule="evenodd" d="M81.7751 0H34.7782C30.815 0 27.5884 3.22924 27.5884 7.1956V54.2302C27.5884 58.1966 30.815 61.4258 34.7782 61.4258H74.5502L72.6913 55.0024L77.1806 59.1443L81.4243 63.0404L89 69.6042V54.2302V50.7202V7.1956C88.9649 3.22924 85.7382 0 81.7751 0ZM68.2372 45.4551C68.2372 45.4551 66.9746 43.9458 65.9224 42.6471C70.5169 41.3484 72.2705 38.5052 72.2705 38.5052C70.8325 39.4529 69.4647 40.1198 68.2372 40.5761C66.4835 41.3133 64.8001 41.7696 63.1517 42.0855C59.7847 42.7173 56.6984 42.5418 54.068 42.0504C52.0688 41.6643 50.3503 41.1378 48.9123 40.541C48.1057 40.2251 47.2289 39.839 46.3521 39.3476C46.2468 39.2774 46.1416 39.2423 46.0364 39.1721C45.9663 39.137 45.9312 39.1019 45.8961 39.1019C45.2648 38.7509 44.9141 38.5052 44.9141 38.5052C44.9141 38.5052 46.5976 41.2782 51.0517 42.612C49.9996 43.9458 48.7019 45.4902 48.7019 45.4902C40.9509 45.2445 38.0048 40.19 38.0048 40.19C38.0048 28.993 43.0553 19.902 43.0553 19.902C48.1057 16.1462 52.8755 16.2515 52.8755 16.2515L53.2262 16.6727C46.9132 18.4628 44.0373 21.2358 44.0373 21.2358C44.0373 21.2358 44.8089 20.8146 46.1065 20.253C49.8593 18.6032 52.8404 18.182 54.068 18.0416C54.2784 18.0065 54.4538 17.9714 54.6642 17.9714C56.8036 17.6906 59.2236 17.6204 61.7488 17.9012C65.0807 18.2873 68.658 19.2702 72.3055 21.2358C72.3055 21.2358 69.5348 18.6032 63.5725 16.8131L64.0636 16.2515C64.0636 16.2515 68.8685 16.1462 73.8838 19.902C73.8838 19.902 78.9342 28.993 78.9342 40.19C78.9342 40.1549 75.9881 45.2094 68.2372 45.4551Z" fill="white"/>
<path fill-rule="evenodd" clip-rule="evenodd" d="M7.85122 83.3129H0.0235755V92.291L5.23414 97.081V88.3676H8.01626C9.78455 88.3676 10.6569 89.2341 10.6569 90.6302V97.2976C10.6569 98.6937 9.83171 99.6324 8.01626 99.6324H0V104.711H7.82764C12.0244 104.735 15.9618 102.593 15.9618 97.6827V90.5098C15.9854 85.5033 12.048 83.3129 7.85122 83.3129ZM48.8756 97.6827V90.3173C48.8756 87.6696 53.5439 87.0678 54.9585 89.7155L59.2732 87.9344C57.5756 84.1313 54.487 83.0241 51.9171 83.0241C47.7203 83.0241 43.5707 85.5033 43.5707 90.3173V97.6827C43.5707 102.545 47.7203 104.976 51.8228 104.976C54.4634 104.976 57.6228 103.652 59.3675 100.186L54.7463 98.0197C53.6146 100.98 48.8756 100.258 48.8756 97.6827ZM34.6114 91.3282C32.9846 90.9672 31.9 90.3654 31.8293 89.3304C31.9236 86.8512 35.6724 86.7549 37.865 89.1379L41.3309 86.4179C39.1618 83.7221 36.7098 83 34.187 83C30.3439 83 26.6187 85.2144 26.6187 89.4026C26.6187 93.4705 29.6837 95.6608 33.0553 96.1904C34.7764 96.4311 36.6862 97.1291 36.639 98.3326C36.4976 100.619 31.8764 100.499 29.778 97.8993L26.4301 101.101C28.387 103.676 31.0512 104.976 33.5504 104.976C37.3935 104.976 41.661 102.713 41.826 98.5733C42.0618 93.3501 38.3366 92.0263 34.6114 91.3282ZM18.8146 104.687H24.0959V83.3129H18.8146V104.687ZM107.866 83.3129H100.038V92.291L105.249 97.081V88.3676H108.031C109.799 88.3676 110.672 89.2341 110.672 90.6302V97.2976C110.672 98.6937 109.846 99.6324 108.031 99.6324H100.015V104.711H107.866C112.063 104.735 116 102.593 116 97.6827V90.5098C116 85.5033 112.063 83.3129 107.866 83.3129ZM69.4585 83.0241C65.1203 83.0241 60.8057 85.4311 60.8057 90.3654V97.6586C60.8057 102.545 65.1439 105 69.5057 105C73.8439 105 78.1585 102.545 78.1585 97.6586V90.3654C78.1585 85.4551 73.7967 83.0241 69.4585 83.0241ZM72.8537 97.6586C72.8537 99.1991 71.1561 99.9934 69.4821 99.9934C67.7845 99.9934 66.087 99.2473 66.087 97.6586V90.3654C66.087 88.8009 67.7374 87.9584 69.3878 87.9584C71.1089 87.9584 72.8537 88.7046 72.8537 90.3654V97.6586ZM97.1146 90.3654C96.9968 85.3589 93.6488 83.337 89.3341 83.337H80.9642V104.711H86.3163V97.9234H87.2594L92.1163 104.711H98.7179L93.0122 97.3698C95.535 96.5514 97.1146 94.3129 97.1146 90.3654ZM89.4285 93.2538H86.3163V88.3676H89.4285C92.7528 88.3676 92.7528 93.2538 89.4285 93.2538Z" fill="white"/>
</svg>
