<svg width="126" height="24" viewBox="0 0 126 24" fill="none" xmlns="http://www.w3.org/2000/svg">
<path d="M5.472 19H9.36V5.368H14.736V2.2H0.096V5.368H5.472V19ZM18.8587 7.792V6.088H15.2827V19H19.0267V12.904C19.0267 10.432 20.3947 9.304 22.4587 9.304C22.7467 9.304 22.9867 9.328 23.2987 9.352V5.896C21.3067 5.896 19.7707 6.544 18.8587 7.792ZM29.6626 5.896C27.5986 5.896 25.5106 6.448 24.0946 7.456L25.4386 10.072C26.3746 9.328 27.7906 8.872 29.1586 8.872C31.1746 8.872 32.1346 9.808 32.1346 11.416H29.1586C25.2226 11.416 23.6146 13 23.6146 15.28C23.6146 17.512 25.4146 19.192 28.4386 19.192C30.3346 19.192 31.6786 18.568 32.3746 17.392V19H35.8786V11.632C35.8786 7.72 33.5986 5.896 29.6626 5.896ZM29.3746 16.672C28.0546 16.672 27.2626 16.048 27.2626 15.112C27.2626 14.248 27.8146 13.6 29.5666 13.6H32.1346V14.92C31.7026 16.096 30.6226 16.672 29.3746 16.672ZM47.8157 1.192V7.456C46.8797 6.4 45.5357 5.896 43.9517 5.896C40.3037 5.896 37.4957 8.488 37.4957 12.544C37.4957 16.6 40.3037 19.192 43.9517 19.192C45.6797 19.192 47.0477 18.64 47.9837 17.512V19H51.5597V1.192H47.8157ZM44.5997 16.12C42.7277 16.12 41.2877 14.776 41.2877 12.544C41.2877 10.312 42.7277 8.968 44.5997 8.968C46.4477 8.968 47.8877 10.312 47.8877 12.544C47.8877 14.776 46.4477 16.12 44.5997 16.12ZM55.8969 4.288C57.2889 4.288 58.2249 3.376 58.2249 2.128C58.2249 0.975999 57.2889 0.111999 55.8969 0.111999C54.5049 0.111999 53.5689 1.024 53.5689 2.2C53.5689 3.376 54.5049 4.288 55.8969 4.288ZM54.0249 19H57.7689V6.088H54.0249V19ZM68.0916 5.896C66.3396 5.896 64.8276 6.496 63.8196 7.6V6.088H60.2436V19H63.9876V12.616C63.9876 10.24 65.2836 9.136 67.0836 9.136C68.7396 9.136 69.6996 10.096 69.6996 12.184V19H73.4436V11.608C73.4436 7.672 71.1396 5.896 68.0916 5.896ZM85.746 6.088V7.744C84.762 6.496 83.274 5.896 81.474 5.896C77.898 5.896 75.018 8.368 75.018 12.136C75.018 15.904 77.898 18.376 81.474 18.376C83.154 18.376 84.57 17.848 85.554 16.768V17.32C85.554 19.648 84.402 20.848 81.762 20.848C80.106 20.848 78.306 20.272 77.202 19.384L75.714 22.072C77.226 23.248 79.602 23.848 82.05 23.848C86.706 23.848 89.298 21.64 89.298 16.84V6.088H85.746ZM82.218 15.304C80.25 15.304 78.81 14.032 78.81 12.136C78.81 10.24 80.25 8.968 82.218 8.968C84.186 8.968 85.602 10.24 85.602 12.136C85.602 14.032 84.186 15.304 82.218 15.304ZM99.3187 2.2H92.0467V19H95.9347V14.368H99.3187C103.807 14.368 106.615 12.04 106.615 8.296C106.615 4.528 103.807 2.2 99.3187 2.2ZM99.1027 11.2H95.9347V5.368H99.1027C101.479 5.368 102.679 6.448 102.679 8.296C102.679 10.12 101.479 11.2 99.1027 11.2ZM113.217 5.896C111.153 5.896 109.065 6.448 107.649 7.456L108.993 10.072C109.929 9.328 111.345 8.872 112.713 8.872C114.729 8.872 115.689 9.808 115.689 11.416H112.713C108.777 11.416 107.169 13 107.169 15.28C107.169 17.512 108.969 19.192 111.993 19.192C113.889 19.192 115.233 18.568 115.929 17.392V19H119.433V11.632C119.433 7.72 117.153 5.896 113.217 5.896ZM112.929 16.672C111.609 16.672 110.817 16.048 110.817 15.112C110.817 14.248 111.369 13.6 113.121 13.6H115.689V14.92C115.257 16.096 114.177 16.672 112.929 16.672ZM121.822 19H125.566V1.192H121.822V19Z" fill="white"/>
</svg>
