<svg width="132" height="106" viewBox="0 0 132 106" fill="none" xmlns="http://www.w3.org/2000/svg">
<path fill-rule="evenodd" clip-rule="evenodd" d="M39.7266 86.8284C38.4408 85.5312 36.4702 84.7646 33.9564 84.7646H25.0434V105.403H28.5575L28.5566 99.0468L28.5538 99.0483V94.446L28.5566 94.4464L28.5575 88.0667H33.6705C36.268 88.0667 37.7772 89.2184 37.8121 91.408L37.813 91.5456L37.8103 91.6891C37.7395 93.728 36.1559 94.9951 33.699 94.9951L32.1871 94.9944L30.3773 98.2082L32.9564 98.2088L37.87 105.403H42.041L36.6411 97.5896L36.8213 97.534C39.4674 96.6845 41.3415 94.7008 41.3829 91.4493L41.3838 91.2803C41.3838 89.4819 40.7836 87.9782 39.7266 86.8284ZM85.5072 87.5207C83.4538 85.7514 81.2875 84.7653 77.8371 84.7653C71.8591 84.7653 67.6376 89.476 67.5466 95.0799L67.5448 95.3229C67.5448 101.24 71.6505 105.765 77.895 105.765C81.4299 105.765 84.2241 104.314 86.2195 102.603V94.0758L82.827 97.2083V100.979C81.6009 101.907 79.9189 102.516 78.009 102.516C73.9915 102.516 71.3031 99.5314 71.2249 95.4485L71.2231 95.2069C71.2231 91.3203 74.0457 88.0718 77.6946 88.0718C80.2038 88.0718 81.7434 88.884 83.2829 90.2181L85.5072 87.5207ZM110.824 95.2069C110.824 89.4931 106.548 84.7653 100.417 84.7653C94.3537 84.7653 90.0467 89.4771 89.9548 95.0819L89.9539 95.3229C89.9539 101.037 94.2305 105.765 100.36 105.765C106.425 105.765 110.731 101.053 110.823 95.448L110.824 95.2069ZM20.8133 105.417L12.0318 84.9683H8.78157L0 105.417L3.50618 105.416L10.3497 89.232L17.2435 105.416L20.8133 105.417ZM66.0438 105.417L57.2626 84.9683H54.0125L45.2303 105.417L48.7368 105.416L55.5806 89.232L62.474 105.416L66.0438 105.417ZM128.551 99.1516L117.858 85.1133H114.608V105.417H118.058V90.9723L129.063 105.417H132V85.1133H128.551V99.1516ZM93.6313 95.2069C93.6313 91.2623 96.3969 88.0718 100.36 88.0718C104.293 88.0718 107.063 91.2255 107.144 95.0914L107.146 95.3229C107.146 99.2676 104.38 102.458 100.417 102.458C96.4842 102.458 93.714 99.3044 93.6331 95.4386L93.6313 95.2069Z" fill="white"/>
<path d="M96.3982 23.5263C96.6713 17.8546 92.71 14.092 88.2394 11.5088L85.3335 28.5803C87.3452 28.468 88.3288 29.2318 88.6864 29.5911C89.1335 30.0404 90.2511 31.3882 88.9099 33.5221C91.7042 33.0729 96.0683 30.3773 96.3982 23.5263Z" fill="white"/>
<path fill-rule="evenodd" clip-rule="evenodd" d="M58.2799 3.65083L54.8152 0.169079C60.0309 -0.46737 73.7929 0.34878 87.1152 8.70481C87.3387 9.60332 87.1152 10.9511 87.1152 10.9511L88.2329 11.5126C89.2015 12.8979 90.8482 16.8363 89.6858 21.5086C88.5235 26.1808 86.5191 28.1725 85.6623 28.5843C83.8741 28.5843 80.834 29.6176 79.8506 34.1999C78.867 38.7823 76.982 39.7782 76.1622 39.7032L56.4917 39.9279L43.5269 32.2907L41.627 16.4544L45.3152 11.5126L51.9094 6.12173L56.6034 4.2124L58.2799 3.65083ZM81.5122 10.1925C80.6447 11.0961 79.8337 11.5296 79.6022 11.6471C74.5372 10.5697 72.7124 7.94927 72.7124 7.94927C77.4899 7.91985 81.802 9.05618 84.9569 10.9784C84.9569 10.9784 83.2491 10.4251 81.5122 10.1925Z" fill="white"/>
<path fill-rule="evenodd" clip-rule="evenodd" d="M79.6774 34.2022C76.2053 35.9061 72.0887 36.8926 67.6748 36.8926C55.2679 36.8926 45.2102 29.0986 45.2102 19.484C45.2102 12.3818 50.6984 6.27292 58.5678 3.56543C43.6015 4.42751 31.5747 16.4506 31.5747 31.2859C31.5747 48.4072 46.8366 62.5542 65.6629 62.5542C79.7211 62.5542 91.4232 54.4034 97.5419 43.4984C89.1229 45.3918 79.1565 41.7921 79.6774 34.2022Z" fill="white"/>
</svg>
