<?xml version="1.0" encoding="UTF-8" standalone="no"?>
<svg
   width="24"
   height="24"
   viewBox="0 0 24 24"
   fill="none"
   version="1.1"
   id="svg789"
   sodipodi:docname="polkadot.svg"
   inkscape:version="1.1 (c4e8f9e, 2021-05-24)"
   xmlns:inkscape="http://www.inkscape.org/namespaces/inkscape"
   xmlns:sodipodi="http://sodipodi.sourceforge.net/DTD/sodipodi-0.dtd"
   xmlns="http://www.w3.org/2000/svg"
   xmlns:svg="http://www.w3.org/2000/svg">
  <defs
     id="defs793" />
  <sodipodi:namedview
     id="namedview791"
     pagecolor="#ffffff"
     bordercolor="#666666"
     borderopacity="1.0"
     inkscape:pageshadow="2"
     inkscape:pageopacity="0.0"
     inkscape:pagecheckerboard="0"
     showgrid="false"
     width="24px"
     inkscape:zoom="13.215752"
     inkscape:cx="16.079296"
     inkscape:cy="11.009589"
     inkscape:window-width="1296"
     inkscape:window-height="809"
     inkscape:window-x="0"
     inkscape:window-y="23"
     inkscape:window-maximized="0"
     inkscape:current-layer="svg789" />
  <g
     id="polkadot"
     transform="scale(1024)">
    <path
       style="color:#000000;fill:#1e1e1e;-inkscape-stroke:none"
       d="m 0.01171875,0 c 0.0064922,0 0.01171875,0.00522656 0.01171875,0.01171875 0,0.0064922 -0.0052266,0.01171875 -0.01171875,0.01171875 C 0.00522656,0.0234375 0,0.01821094 0,0.01171875 0,0.00522656 0.00522656,0 0.01171875,0 Z"
       id="shape" />
    <g
       id="shape_2">
      <path
         style="color:#000000;fill:#ffffff;-inkscape-stroke:none"
         d="M 0.0120746,0.00351562 C 0.00864775,0.00352939 0.00587314,0.006304 0.00585938,0.00973081 c 0,6.8629e-4 1.1077e-4,0.00136799 3.2773e-4,0.00201889 1.619e-4,4.431e-4 6.4236e-4,6.817e-4 0.00109333,5.447e-4 4.3589e-4,-1.672e-4 6.6727e-4,-6.437e-4 5.2831e-4,-0.0010894 C 0.00762456,0.0106976 0.00754263,0.0101595 0.00756688,0.00962069 0.0076416,0.00714563 0.00970831,0.00519953 0.0121834,0.00527426 c 0.002475,7.472e-5 0.0044211,0.00214142 0.0043464,0.00461649 -7.01e-5,0.00231705 -0.001895,0.00419895 -0.0042094,0.00433985 0,0 -8.725e-4,5.31e-5 -0.0013064,1.062e-4 -1.599e-4,2.3e-5 -3.186e-4,5.44e-5 -4.752e-4,9.44e-5 -2.23e-5,2.29e-5 -5.83e-5,2.29e-5 -8.13e-5,7e-7 l -6e-7,-7e-7 c -1.58e-5,-2.03e-5 -1.58e-5,-4.92e-5 0,-6.95e-5 l 1.35e-4,-7.367e-4 8.193e-4,-0.00368509 c 9.83e-5,-4.6015e-4 -1.947e-4,-9.1308e-4 -6.548e-4,-0.0010114 -4.601e-4,-9.832e-5 -9.1307e-4,1.9468e-4 -0.00101139,6.5482e-4 0,0 -0.00194872,0.00901997 -0.00194872,0.00910187 -1.1143e-4,4.385e-4 1.5339e-4,8.842e-4 5.919e-4,9.957e-4 4.58e-6,1.3e-6 9.83e-6,2.6e-6 1.442e-5,3.3e-6 h 4.522e-5 c 4.3786e-4,1.134e-4 8.8489e-4,-1.501e-4 9.9763e-4,-5.88e-4 1.97e-6,-7.2e-6 3.94e-6,-1.44e-5 5.25e-6,-2.23e-5 -1.31e-6,-1.38e-5 -1.31e-6,-2.75e-5 0,-4.06e-5 2.425e-5,-1.062e-4 2.7005e-4,-0.0013064 2.7005e-4,-0.0013064 1.8616e-4,-9.058e-4 9.1634e-4,-0.0016 0.00183004,-0.0017403 1.882e-4,-2.88e-5 9.787e-4,-8.19e-5 9.787e-4,-8.19e-5 C 0.0159432,0.0155645 0.0184346,0.0125212 0.0180938,0.00910746 0.0177831,0.00599396 0.0152038,0.0035969 0.0120746,0.00351562 Z"
         id="shape_3" />
      <path
         style="color:#000000;fill:#e6007a;-inkscape-stroke:none"
         d="m 0.0124512,0.0178462 c -5.604e-4,-1.167e-4 -0.0011084,2.432e-4 -0.0012251,8.03e-4 -1.3e-6,5.2e-6 -1.9e-6,1.05e-5 -3.2e-6,1.57e-5 -1.213e-4,5.565e-4 2.313e-4,0.0011064 7.885e-4,0.0012277 7e-7,0 1.3e-6,0 2e-6,6e-7 h 2.88e-5 c 5.454e-4,1.318e-4 0.001094,-2.038e-4 0.0012251,-7.485e-4 1.3e-6,-3.9e-6 1.9e-6,-8.5e-6 3.3e-6,-1.25e-5 v -5.7e-5 c 9.63e-5,-5.624e-4 -2.629e-4,-0.0011018 -8.194e-4,-0.001229 z"
         id="shape_4" />
    </g>
  </g>
</svg>
