<?xml version="1.0" encoding="UTF-8" standalone="no"?>
<svg
   width="24"
   height="24"
   viewBox="0 0 24 24"
   fill="none"
   version="1.1"
   id="svg925"
   sodipodi:docname="stellar.svg"
   inkscape:version="1.1 (c4e8f9e, 2021-05-24)"
   xmlns:inkscape="http://www.inkscape.org/namespaces/inkscape"
   xmlns:sodipodi="http://sodipodi.sourceforge.net/DTD/sodipodi-0.dtd"
   xmlns="http://www.w3.org/2000/svg"
   xmlns:svg="http://www.w3.org/2000/svg">
  <defs
     id="defs929" />
  <sodipodi:namedview
     id="namedview927"
     pagecolor="#ffffff"
     bordercolor="#666666"
     borderopacity="1.0"
     inkscape:pageshadow="2"
     inkscape:pageopacity="0.0"
     inkscape:pagecheckerboard="0"
     showgrid="false"
     width="24px"
     inkscape:zoom="9.6603126"
     inkscape:cx="0.98340503"
     inkscape:cy="12.680749"
     inkscape:window-width="1296"
     inkscape:window-height="809"
     inkscape:window-x="0"
     inkscape:window-y="23"
     inkscape:window-maximized="0"
     inkscape:current-layer="svg925" />
  <g
     id="stellar"
     transform="scale(1024)">
    <path
       style="color:#000000;fill:#7b25fb;-inkscape-stroke:none"
       d="m 0.01171875,0 c 0.0064922,0 0.01171875,0.00522656 0.01171875,0.01171875 0,0.0064922 -0.0052266,0.01171875 -0.01171875,0.01171875 C 0.00522656,0.0234375 0,0.01821094 0,0.01171875 0,0.00522656 0.00522656,0 0.01171875,0 Z"
       id="shape" />
    <path
       style="color:#000000;clip-rule:evenodd;fill:#ffffff;fill-rule:evenodd;-inkscape-stroke:none"
       d="M 0.0158886,0.00595362 C 0.0136537,0.00442041 0.0106976,0.00420166 0.00823769,0.00538721 v 4.9e-7 C 0.00577675,0.00657324 0.0042289,0.00896338 0.0042289,0.0115742 c 0,1.773e-4 6.83e-6,3.53e-4 2.099e-5,5.288e-4 4.102e-5,5.078e-4 -2.4511e-4,9.893e-4 -7.2558e-4,0.0012207 l -6.3086e-4,3.037e-4 v 0.001419 l 0.00185742,-8.95e-4 6.0156e-4,-2.906e-4 5.9278e-4,-2.851e-4 L 0.0165868,0.00844971 0.0177831,0.00787403 0.0202543,0.00668311 V 0.00526514 L 0.0178041,0.00644678 0.0157138,0.00745361 0.00561903,0.0123145 c -3.418e-5,-2.461e-4 -5.127e-5,-4.942e-4 -5.127e-5,-7.422e-4 C 0.00557069,0.00955713 0.00670155,0.00769385 0.00854091,0.00667481 0.0103803,0.00565576 0.0126522,0.00563379 0.0145136,0.00661621 l 0.0011963,-5.7617e-4 z m 0.0043657,0.0035625 V 0.00810205 L 0.0065497,0.0147007 0.00535439,0.0152778 0.00289345,0.0164634 V 0.0178809 L 0.0053373,0.0167036 0.00742763,0.0156963 0.0175326,0.0108276 c 3.42e-5,2.476e-4 5.13e-5,4.971e-4 5.13e-5,7.471e-4 C 0.0175824,0.0135933 0.0164501,0.0154595 0.0146083,0.016479 0.012766,0.0174985 0.0104911,0.0175186 0.00862929,0.0165313 l -7.324e-5,3.71e-5 -0.00129737,6.25e-4 C 0.00949306,0.0187275 0.0124486,0.0189468 0.0149086,0.0177612 0.017369,0.0165762 0.0189184,0.014186 0.0189193,0.0115747 c 0,-1.782e-4 -7.3e-6,-3.569e-4 -2.15e-5,-5.337e-4 -4.05e-5,-5.078e-4 2.452e-4,-9.892e-4 7.251e-4,-0.00122068 z"
       id="shape_2" />
  </g>
</svg>
