<svg width="24" height="24" viewBox="0 0 24 24" fill="none" xmlns="http://www.w3.org/2000/svg">
<rect x="2" y="2" width="20" height="20" rx="4" fill="white"/>
<mask id="mask0_802:288" style="mask-type:alpha" maskUnits="userSpaceOnUse" x="2" y="2" width="20" height="20">
<rect x="2" y="2" width="20" height="20" rx="4" fill="white"/>
</mask>
<g mask="url(#mask0_802:288)">
<rect x="2" y="2" width="20" height="2.5" fill="white"/>
<rect x="2" y="4.5" width="20" height="2.5" fill="#F54562"/>
<rect x="2" y="7" width="20" height="2.5" fill="white"/>
<rect x="2" y="9.5" width="20" height="2.5" fill="#F54562"/>
<rect x="2" y="12" width="20" height="2.5" fill="white"/>
<rect x="2" y="14.5" width="20" height="2.5" fill="#F54562"/>
<rect x="2" y="17" width="20" height="2.5" fill="white"/>
<rect x="2" y="19.5" width="20" height="2.5" fill="#F54562"/>
<rect x="2" y="2" width="10" height="10" fill="#4579F5"/>
<path fill-rule="evenodd" clip-rule="evenodd" d="M7.82066 5.1739L7.49687 4.17745L8.34453 3.56163H7.2968L6.97305 2.56519L6.6493 3.56163H5.60156L6.44922 4.17745L6.12543 5.1739L6.97305 4.55808L7.82066 5.1739ZM7.49687 7.0905L7.82066 8.08694L6.97305 7.47112L6.12543 8.08694L6.44922 7.0905L5.60156 6.47468H6.6493L6.97305 5.47823L7.2968 6.47468H8.34453L7.49687 7.0905ZM7.82066 11L6.97305 10.3842L6.12543 11L6.44922 10.0035L5.60156 9.38773H6.6493L6.97305 8.39128L7.2968 9.38773H8.34453L7.49687 10.0035L7.82066 11ZM10.8675 5.1739L10.5437 4.17745L11.3914 3.56163H10.3437L10.0199 2.56519L9.69617 3.56163H8.64844L9.49609 4.17745L9.1723 5.1739L10.0199 4.55808L10.8675 5.1739ZM10.5437 7.0905L10.8675 8.08694L10.0199 7.47112L9.1723 8.08694L9.49609 7.0905L8.64844 6.47468H9.69617L10.0199 5.47823L10.3437 6.47468H11.3914L10.5437 7.0905ZM10.8675 11L10.0199 10.3842L9.1723 11L9.49609 10.0035L8.64844 9.38773H9.69617L10.0199 8.39128L10.3437 9.38773H11.3914L10.5437 10.0035L10.8675 11ZM3.97305 10.3842L4.82066 11L4.49688 10.0035L5.34453 9.38771H4.2968L3.97305 8.39127L3.6493 9.38771H2.60156L3.44922 10.0035L3.12543 11L3.97305 10.3842ZM4.49688 7.09051L4.82066 8.08695L3.97305 7.47113L3.12543 8.08695L3.44922 7.09051L2.60156 6.47469H3.6493L3.97305 5.47824L4.2968 6.47469H5.34453L4.49688 7.09051ZM4.82066 5.1739L4.49688 4.17745L5.34453 3.56163H4.2968L3.97305 2.56519L3.6493 3.56163H2.60156L3.44922 4.17745L3.12543 5.1739L3.97305 4.55808L4.82066 5.1739Z" fill="white"/>
</g>
</svg>
